<?xml version="1.0" encoding="utf-8"?>
<!-- Generator: Adobe Illustrator 25.4.1, SVG Export Plug-In . SVG Version: 6.00 Build 0)  -->
<svg version="1.1" id="Layer_1" xmlns="http://www.w3.org/2000/svg" xmlns:xlink="http://www.w3.org/1999/xlink" x="0px" y="0px"
	 viewBox="0 0 768.49 283.52" style="enable-background:new 0 0 768.49 283.52;" xml:space="preserve">
<style type="text/css">
	.st0{fill:#43538E;}
	.st1{fill:#67C4A7;}
	.st2{fill:#FDEB07;}
</style>
<g>
	<g>
		<g>
			<g>
				<path class="st0" d="M360.82,103.11v51.47c-10.83-5.07-20.31-14.79-24.08-30.79v-20.68H360.82z"/>
			</g>
			<g>
				<path class="st0" d="M360.82,103.11v51.47c-10.83-5.07-20.31-14.79-24.08-30.79v-20.68H360.82z"/>
			</g>
			<g>
				<path class="st0" d="M391.17,84.38v73.73c-1.27,0.26-2.57,0.47-3.91,0.62c-1.95,0.23-3.94,0.36-5.94,0.36
					c-4.62,0-9.48-0.66-14.24-2.11v-72.6H391.17z"/>
			</g>
			<g>
				<path class="st0" d="M391.17,84.38v73.73c-1.27,0.26-2.57,0.47-3.91,0.62c-1.95,0.23-3.94,0.36-5.94,0.36
					c-4.62,0-9.48-0.66-14.24-2.11v-72.6H391.17z"/>
			</g>
			<g>
				<path class="st0" d="M421.53,66.27v65.41c-3.32,11.43-12.02,20.41-24.08,24.67V66.27H421.53z"/>
			</g>
			<g>
				<path class="st0" d="M421.53,66.27v65.41c-3.32,11.43-12.02,20.41-24.08,24.67V66.27H421.53z"/>
			</g>
		</g>
	</g>
	<g>
		<g>
			<path class="st1" d="M482.56,58.35L445.76,7.2l-36.79,51.15h19.81v60.56c0.01,0.21,0.02,0.41,0.02,0.61
				c0.86,24.62-17.13,42.14-40.83,44.98c-24.36,3.01-55.13-10.46-58.5-49.49c-0.09,1.06-0.16,2.1-0.21,3.13v0.06
				c0.02,0.66,0.06,1.34,0.1,2c1.08,15.62,7.59,30.91,19.53,42.84c12.07,12.07,27.57,18.58,43.35,19.54
				c0.64,0.05,1.28,0.07,1.92,0.09c1.86,0.07,3.74,0.06,5.6-0.05c0.52-0.01,1.04-0.05,1.55-0.08c1.59-0.12,3.18-0.28,4.75-0.51
				l1.54-0.24c0.58-0.1,1.18-0.21,1.76-0.33c0.33-0.06,0.65-0.13,0.97-0.2c0.3-0.06,0.61-0.13,0.91-0.2c0.5-0.1,1-0.22,1.49-0.35
				c0.5-0.13,1-0.26,1.49-0.38c10.89-2.98,21.18-8.74,29.74-17.3c12.09-12.09,18.62-27.68,19.55-43.53c0.09-1.33,0.13-2.67,0.13-4
				V58.35H482.56z"/>
		</g>
	</g>
	<g>
		<path class="st0" d="M62.44,255.68c1.85-0.53,3.4-1.34,4.65-2.44s2.21-2.48,2.89-4.14c0.68-1.66,1.02-3.63,1.02-5.9v-47.97h21.55
			v44.23c0,7.11-0.76,13.03-2.27,17.75c-1.51,4.73-3.78,8.51-6.8,11.34c-3.02,2.84-6.82,4.84-11.4,6.01
			c-4.58,1.17-9.92,1.76-16.05,1.76s-11.47-0.59-16.05-1.76s-8.37-3.18-11.4-6.01c-3.03-2.83-5.29-6.61-6.81-11.34
			c-1.51-4.72-2.27-10.64-2.27-17.75v-44.23h21.55v47.97c0,2.27,0.34,4.24,1.02,5.9c0.68,1.66,1.65,3.04,2.89,4.14
			c1.25,1.1,2.82,1.91,4.71,2.44c1.89,0.53,4.01,0.79,6.35,0.79C58.45,256.48,60.59,256.21,62.44,255.68z"/>
		<path class="st0" d="M102.76,274.62v-56.71h20.41v56.71H102.76z M142.45,274.62v-28.35c0-1.89-0.15-3.53-0.45-4.93
			c-0.3-1.4-0.81-2.57-1.53-3.52s-1.66-1.66-2.83-2.15c-1.17-0.49-2.67-0.74-4.48-0.74c-3.18,0-5.63,0.95-7.37,2.83
			c-1.74,1.89-2.61,4.73-2.61,8.51v1.7h-5.22v-1.7c0-4.38,0.47-8.41,1.42-12.08c0.94-3.67,2.32-6.84,4.14-9.53
			c1.82-2.68,4.1-4.76,6.86-6.24c2.76-1.47,5.95-2.21,9.58-2.21s6.86,0.42,9.7,1.25c2.84,0.83,5.23,2.29,7.2,4.37
			c1.96,2.08,3.46,4.92,4.48,8.51c1.02,3.59,1.53,8.15,1.53,13.67v30.62H142.45z"/>
		<path class="st0" d="M173.07,274.62v-85.06h20.41v85.06H173.07z"/>
		<path class="st0" d="M206.36,192.11c1.78-1.85,4.67-2.78,8.68-2.78s6.9,0.93,8.68,2.78c1.78,1.85,2.67,4.71,2.67,8.56
			c0,3.86-0.89,6.71-2.67,8.56c-1.78,1.85-4.67,2.78-8.68,2.78s-6.9-0.92-8.68-2.78c-1.78-1.85-2.67-4.71-2.67-8.56
			C203.69,196.82,204.58,193.97,206.36,192.11z M204.83,217.92h20.42v56.71h-20.42V217.92z"/>
		<path class="st0" d="M235.79,226.76c0.98-2.42,2.57-4.42,4.76-6.01c2.19-1.59,5.05-2.74,8.56-3.46c3.52-0.72,7.84-1.08,12.99-1.08
			c10.36,0,17.84,1.65,22.45,4.93c4.61,3.29,6.92,8.64,6.92,16.05h-18.15c0-0.91-0.3-1.65-0.91-2.21c-0.61-0.57-1.53-1.02-2.78-1.36
			c-1.25-0.34-2.87-0.58-4.88-0.74c-2-0.15-4.4-0.23-7.2-0.23c-1.36,0-2.5,0.06-3.4,0.17c-0.91,0.11-1.61,0.28-2.1,0.51
			c-0.49,0.23-0.83,0.47-1.02,0.74c-0.19,0.27-0.28,0.55-0.28,0.85c0,0.38,0.32,0.72,0.96,1.02c0.64,0.3,1.55,0.59,2.72,0.85
			c1.17,0.27,2.63,0.51,4.37,0.74c1.74,0.23,3.7,0.45,5.9,0.68c3.86,0.45,7.47,0.95,10.83,1.47c3.36,0.53,6.29,1.42,8.79,2.67
			c2.5,1.25,4.46,3,5.9,5.27c1.44,2.27,2.16,5.41,2.16,9.41c0,6.88-2.32,11.81-6.97,14.8c-4.65,2.99-11.44,4.48-20.36,4.48
			c-10.66,0-18.45-1.65-23.36-4.93c-4.92-3.29-7.37-8.64-7.37-16.05h18.15c0,0.83,0.34,1.55,1.02,2.15c0.68,0.61,1.7,1.08,3.06,1.42
			c1.36,0.34,3.04,0.59,5.05,0.74c2,0.15,4.33,0.23,6.97,0.23c1.21,0,2.27-0.06,3.18-0.17c0.91-0.11,1.68-0.28,2.32-0.51
			c0.64-0.23,1.11-0.49,1.42-0.79c0.3-0.3,0.45-0.6,0.45-0.91c0-0.45-0.28-0.83-0.85-1.13c-0.57-0.3-1.44-0.55-2.61-0.74
			c-1.17-0.19-2.65-0.34-4.42-0.45c-1.78-0.11-3.84-0.28-6.18-0.51c-3.1-0.23-6.28-0.62-9.53-1.19c-3.25-0.57-6.22-1.51-8.9-2.83
			c-2.68-1.32-4.88-3.19-6.58-5.62c-1.7-2.42-2.55-5.59-2.55-9.53C234.32,232.09,234.81,229.18,235.79,226.76z"/>
		<path class="st0" d="M354.76,217.92v18.15h-56.71v-18.15H354.76z M308.26,217.92l9.07-22.68h11.34v56.59
			c0,0.98,0.09,1.85,0.28,2.61c0.19,0.76,0.47,1.36,0.85,1.81c0.38,0.45,0.85,0.79,1.42,1.02c0.57,0.23,1.23,0.34,1.98,0.34
			c0.83,0,1.55-0.08,2.15-0.23c0.6-0.15,1.11-0.4,1.53-0.74c0.41-0.34,0.74-0.81,0.96-1.42c0.23-0.6,0.34-1.32,0.34-2.15h18.15
			c0,4.39-0.53,8.07-1.59,11.06c-1.06,2.99-2.61,5.39-4.65,7.2c-2.04,1.82-4.56,3.1-7.54,3.86c-2.99,0.76-6.41,1.13-10.26,1.13
			c-4.16,0-7.77-0.49-10.83-1.47s-5.56-2.46-7.49-4.42c-1.93-1.97-3.37-4.42-4.31-7.37c-0.95-2.95-1.42-6.35-1.42-10.21V217.92z"/>
		<path class="st0" d="M420.99,251.94h-19.28v-9.64c0-1.51-0.25-2.87-0.74-4.08c-0.49-1.21-1.15-2.23-1.99-3.06
			c-0.83-0.83-1.85-1.45-3.06-1.87c-1.21-0.41-2.57-0.62-4.08-0.62c-1.44,0-2.76,0.28-3.97,0.85c-1.21,0.57-2.27,1.42-3.18,2.55
			c-0.91,1.13-1.61,2.55-2.1,4.25c-0.49,1.7-0.74,3.68-0.74,5.95c0,2.57,0.24,4.73,0.74,6.46c0.49,1.74,1.21,3.14,2.15,4.2
			c0.95,1.06,2.1,1.82,3.46,2.27c1.36,0.45,2.91,0.68,4.65,0.68c1.36,0,2.61-0.11,3.74-0.34c1.13-0.23,2.12-0.55,2.95-0.96
			c0.83-0.41,1.47-0.91,1.93-1.47c0.45-0.57,0.68-1.15,0.68-1.76h18.15c0,6.28-2.34,11.34-7.03,15.2
			c-4.69,3.86-11.49,5.78-20.42,5.78c-10.81,0-18.85-2.53-24.1-7.6c-5.26-5.06-7.88-12.55-7.88-22.45c0-9.68,2.57-17.11,7.71-22.29
			c5.14-5.18,12.55-7.77,22.23-7.77c10.81,0,18.54,2.74,23.19,8.22c4.65,5.48,6.97,13.89,6.97,25.23V251.94z M369.28,238.33h46.5
			v13.61h-46.5V238.33z"/>
		<path class="st0" d="M434.83,223.81c4.69-5.06,10.92-7.6,18.71-7.6c4.01,0,7.26,0.72,9.75,2.16c2.5,1.44,4.48,3.46,5.95,6.07
			c1.47,2.61,2.48,5.77,3,9.47s0.79,7.83,0.79,12.36c0,4.08-0.25,7.94-0.74,11.57c-0.49,3.63-1.44,6.8-2.84,9.53
			c-1.4,2.72-3.33,4.9-5.78,6.52c-2.46,1.63-5.69,2.44-9.7,2.44c-3.71,0-7.16-0.64-10.38-1.93c-3.21-1.28-5.99-3.19-8.34-5.73
			s-4.18-5.67-5.5-9.41c-1.32-3.74-1.98-8.07-1.98-12.98C427.8,236.37,430.14,228.88,434.83,223.81z M451.39,254.77
			c1.74,1.89,4.35,2.84,7.83,2.84c3.55,0,6.2-0.95,7.94-2.84c1.74-1.89,2.61-4.72,2.61-8.51c0-3.78-0.87-6.62-2.61-8.51
			c-1.74-1.89-4.39-2.83-7.94-2.83c-1.97,0-3.61,0.25-4.93,0.74c-1.32,0.49-2.4,1.21-3.23,2.15c-0.83,0.95-1.42,2.12-1.76,3.52
			c-0.34,1.4-0.51,3.04-0.51,4.93C448.78,250.05,449.65,252.89,451.39,254.77z M469.76,189.56h20.42v85.06h-20.42V189.56z"/>
		<path class="st1" d="M527.6,195.23h38.11c3.25,0,6.18,0.51,8.79,1.53c2.61,1.02,4.82,2.48,6.63,4.37c1.82,1.89,3.21,4.1,4.2,6.63
			c0.98,2.53,1.47,5.35,1.47,8.45c0,3.86-0.74,7.01-2.21,9.47c-1.47,2.46-3.42,4.33-5.84,5.62c1.89,0.6,3.66,1.47,5.33,2.61
			c1.66,1.13,3.12,2.53,4.37,4.2s2.23,3.59,2.95,5.78c0.72,2.19,1.08,4.69,1.08,7.49c0,3.4-0.55,6.52-1.64,9.36
			c-1.1,2.84-2.67,5.29-4.71,7.37c-2.04,2.08-4.52,3.68-7.43,4.82c-2.91,1.14-6.18,1.7-9.81,1.7H527.6V195.23z M563.89,225.85
			c2.65,0,4.76-0.79,6.35-2.38c1.59-1.59,2.38-3.7,2.38-6.35c0-2.72-0.79-4.88-2.38-6.46c-1.59-1.59-3.7-2.38-6.35-2.38h-22.12
			v17.58H563.89z M567.07,261.58c3.4,0,6.12-1.02,8.17-3.06c2.04-2.04,3.06-4.76,3.06-8.16c0-3.48-1.02-6.26-3.06-8.34
			c-2.04-2.08-4.76-3.12-8.17-3.12h-25.29v22.68H567.07z"/>
		<path class="st1" d="M623.66,275.64c-4.69,0-8.68-0.78-11.97-2.32c-3.29-1.55-5.99-3.52-8.11-5.9c-2.12-2.38-3.65-4.97-4.59-7.77
			c-0.95-2.8-1.42-5.44-1.42-7.94v-33.8h13.61v33.46c0,2.04,0.34,3.78,1.02,5.22c0.68,1.44,1.59,2.65,2.72,3.63
			c1.13,0.98,2.46,1.7,3.97,2.15c1.51,0.45,3.1,0.68,4.76,0.68c1.66,0,3.25-0.23,4.76-0.68c1.51-0.45,2.84-1.17,3.97-2.15
			c1.13-0.98,2.04-2.19,2.72-3.63c0.68-1.44,1.02-3.18,1.02-5.22v-33.46h13.61v33.8c0,2.5-0.47,5.14-1.42,7.94
			c-0.95,2.8-2.48,5.39-4.59,7.77c-2.12,2.38-4.82,4.35-8.11,5.9C632.33,274.87,628.34,275.64,623.66,275.64z"/>
		<path class="st1" d="M654.84,217.92h45.37v9.07l-26.31,35.16h26.31v12.48h-45.37v-9.07l26.42-35.16h-26.42V217.92z"/>
		<path class="st1" d="M703.61,217.92h45.37v9.07l-26.31,35.16h26.31v12.48h-45.37v-9.07l26.42-35.16h-26.42V217.92z"/>
	</g>
</g>
</svg>
