<?xml version="1.0" standalone="no"?>
<!DOCTYPE svg PUBLIC "-//W3C//DTD SVG 20010904//EN"
 "http://www.w3.org/TR/2001/REC-SVG-20010904/DTD/svg10.dtd">
<svg version="1.0" xmlns="http://www.w3.org/2000/svg"
 width="1080.000000pt" height="1282.000000pt" viewBox="0 0 1080.000000 1282.000000"
 preserveAspectRatio="xMidYMid meet">

<g transform="translate(0.000000,1282.000000) scale(0.100000,-0.100000)"
fill="#000000" stroke="none">
<path id="1" d="M4585 12520 c-3 -5 -19 -10 -36 -10 -16 0 -29 -5 -29 -11 0 -7 -11
-9 -26 -6 -16 3 -28 0 -31 -9 -3 -8 -14 -14 -24 -14 -10 0 -19 -4 -19 -8 0 -5
-12 -15 -27 -23 -38 -19 -113 -95 -113 -114 0 -8 -4 -15 -10 -15 -5 0 -10 -13
-10 -29 0 -17 -6 -31 -15 -35 -11 -4 -14 -13 -9 -31 7 -28 -19 -46 -39 -26 -6
6 -19 11 -29 11 -10 0 -18 5 -18 10 0 6 -11 10 -24 10 -13 0 -29 7 -36 15 -10
11 -36 15 -112 15 -78 0 -100 -3 -104 -15 -4 -8 -19 -15 -34 -15 -16 0 -32 -4
-35 -10 -3 -5 -15 -10 -26 -10 -10 0 -19 -4 -19 -10 0 -5 -9 -10 -20 -10 -11
0 -20 -4 -20 -10 0 -5 -9 -10 -20 -10 -11 0 -20 -4 -20 -10 0 -5 -9 -10 -19
-10 -11 0 -23 -4 -26 -10 -3 -5 -17 -10 -31 -10 -13 0 -24 -4 -24 -10 0 -5
-11 -10 -24 -10 -13 0 -26 -3 -28 -7 -4 -11 -87 -53 -104 -53 -8 0 -14 -4 -14
-10 0 -5 -9 -10 -20 -10 -11 0 -20 -4 -20 -8 0 -5 -12 -15 -27 -23 -16 -8 -42
-29 -59 -46 -17 -18 -36 -33 -43 -33 -6 0 -11 -6 -11 -14 0 -8 -10 -23 -22
-33 -27 -22 -48 -56 -48 -78 0 -8 -4 -15 -9 -15 -11 0 -9 -165 2 -176 4 -4 7
-20 7 -36 0 -16 6 -31 15 -34 9 -4 15 -19 15 -35 l0 -29 -250 0 c-160 0 -250
-4 -250 -10 0 -5 -11 -10 -25 -10 -27 0 -109 -66 -100 -81 3 -4 1 -11 -5 -14
-29 -18 -35 -67 -28 -238 10 -231 11 -244 26 -258 6 -7 12 -28 12 -45 0 -18 5
-36 10 -39 6 -3 10 -19 10 -36 0 -16 5 -29 11 -29 7 0 9 -11 6 -26 -3 -16 0
-28 9 -31 8 -3 14 -11 14 -18 0 -7 10 -32 22 -54 17 -32 19 -44 10 -53 -10
-10 -17 -10 -32 0 -11 6 -29 12 -40 12 -11 0 -23 6 -26 14 -7 18 -264 17 -264
-1 0 -8 -13 -13 -29 -13 -17 0 -33 -4 -36 -10 -3 -5 -15 -10 -26 -10 -10 0
-19 -4 -19 -10 0 -5 -9 -10 -21 -10 -11 0 -33 -9 -49 -20 -15 -11 -30 -17 -33
-13 -4 3 -9 -2 -13 -11 -3 -9 -15 -16 -25 -16 -10 0 -19 -4 -19 -10 0 -5 -7
-10 -15 -10 -8 0 -15 -4 -15 -10 0 -5 -5 -10 -11 -10 -7 0 -22 -11 -35 -25
-13 -14 -28 -25 -34 -25 -5 0 -10 -5 -10 -10 0 -6 -11 -15 -25 -20 -13 -5 -35
-26 -49 -47 -13 -21 -40 -55 -60 -76 -20 -20 -36 -43 -36 -50 0 -7 -9 -19 -20
-27 -11 -8 -20 -22 -20 -32 0 -10 -4 -18 -10 -18 -5 0 -10 -9 -10 -20 0 -11
-4 -20 -8 -20 -9 0 -52 -89 -52 -108 0 -7 -4 -12 -10 -12 -5 0 -10 -11 -10
-25 0 -14 -4 -25 -10 -25 -5 0 -10 -13 -10 -29 0 -16 -6 -31 -14 -34 -9 -4
-12 -14 -9 -27 3 -13 0 -25 -7 -30 -8 -5 -13 -24 -12 -44 1 -19 -4 -39 -11
-43 -18 -12 -17 -325 1 -336 7 -5 12 -19 10 -31 -1 -13 2 -29 9 -37 6 -8 11
-18 11 -22 1 -15 27 -67 34 -67 5 0 8 -9 8 -20 0 -11 5 -20 10 -20 6 0 10 -6
10 -14 0 -7 14 -27 30 -44 35 -37 39 -62 10 -62 -11 0 -20 -4 -20 -10 0 -5
-13 -10 -30 -10 -16 0 -30 -4 -30 -10 0 -5 -9 -10 -19 -10 -11 0 -23 -4 -26
-10 -3 -5 -14 -10 -23 -10 -22 0 -156 -68 -181 -92 -11 -10 -24 -18 -29 -18
-11 0 -72 -64 -72 -76 0 -6 -10 -21 -22 -34 -38 -40 -68 -90 -68 -110 0 -11
-4 -20 -10 -20 -5 0 -10 -9 -10 -19 0 -11 -4 -23 -10 -26 -5 -3 -10 -19 -10
-36 0 -16 -4 -29 -10 -29 -5 0 -10 -22 -10 -49 0 -28 -4 -53 -10 -56 -5 -3
-10 -46 -10 -96 0 -53 -4 -89 -10 -89 -13 0 -13 -167 0 -175 6 -4 10 -57 10
-125 0 -68 4 -121 10 -125 6 -3 10 -35 10 -70 0 -35 5 -67 10 -70 6 -3 10 -24
10 -46 0 -21 5 -39 10 -39 6 0 10 -8 10 -17 0 -10 7 -26 15 -36 7 -11 11 -25
8 -33 -3 -8 0 -14 6 -14 7 0 17 -13 22 -29 6 -16 17 -32 25 -35 8 -3 14 -13
14 -22 0 -19 133 -153 173 -173 15 -8 27 -18 27 -23 0 -4 7 -8 15 -8 8 0 30
-9 50 -20 20 -11 41 -20 47 -20 6 0 19 -7 27 -14 9 -8 48 -18 86 -22 39 -4 77
-13 86 -21 22 -19 339 -15 346 5 3 6 17 12 33 12 15 0 35 9 45 20 10 11 23 20
30 20 16 0 95 88 95 106 0 8 5 14 10 14 6 0 10 9 10 20 0 11 7 20 15 20 9 0
15 9 15 23 0 36 29 87 56 97 14 6 24 18 24 30 0 11 3 20 8 20 8 0 32 49 32 67
0 7 5 13 10 13 6 0 10 11 10 24 0 14 5 28 10 31 6 3 10 19 10 36 0 16 5 29 10
29 6 0 10 18 10 39 0 22 5 43 10 46 6 3 10 26 10 50 0 24 4 47 10 50 6 3 10
46 10 95 0 55 4 90 11 92 14 5 14 187 0 201 -6 6 -11 47 -11 93 0 46 -4 86
-10 89 -5 3 -10 24 -10 45 0 21 -4 42 -10 45 -5 3 -10 19 -10 36 0 16 -4 29
-10 29 -5 0 -10 11 -10 24 0 14 -4 28 -10 31 -5 3 -10 15 -10 26 0 10 -4 19
-10 19 -5 0 -10 9 -10 20 0 11 -5 20 -10 20 -6 0 -16 12 -23 27 -6 16 -27 42
-45 60 -31 30 -35 63 -8 63 18 0 66 24 66 33 0 4 8 7 18 7 10 0 24 9 32 20 8
11 20 20 27 20 7 0 27 14 45 30 17 17 35 30 39 30 9 0 149 136 149 144 0 6 37
50 68 82 6 7 12 19 12 26 0 8 9 20 20 28 11 8 20 22 20 32 0 10 5 18 10 18 6
0 10 9 10 20 0 11 5 20 10 20 6 0 10 9 10 20 0 11 5 20 10 20 6 0 10 9 10 20
0 11 5 20 10 20 6 0 10 8 10 18 0 10 6 24 12 30 7 7 13 18 14 25 3 38 18 77
31 77 10 0 12 6 8 21 -4 12 -1 27 8 37 15 17 25 59 30 119 2 18 8 38 15 45 7
7 12 36 12 64 0 29 5 56 10 59 6 3 10 30 10 60 0 30 -4 57 -10 60 -5 3 -10 26
-10 49 0 27 -6 48 -16 56 -8 8 -14 25 -12 39 3 25 5 26 86 29 48 2 82 7 82 13
0 6 19 9 47 8 30 -2 48 1 51 9 2 7 17 12 32 12 16 0 32 5 35 10 3 6 15 10 26
10 10 0 19 5 19 10 0 6 6 10 13 10 18 0 67 24 67 33 0 4 7 7 16 7 8 0 29 13
47 30 18 16 35 30 39 30 12 0 108 104 108 117 0 7 4 13 9 13 5 0 11 8 14 18 3
9 13 31 23 47 27 48 34 64 34 80 0 8 5 15 10 15 6 0 10 18 10 39 0 22 5 43 10
46 6 3 10 48 10 100 0 52 -4 97 -10 100 -5 3 -10 24 -10 46 0 21 -4 39 -10 39
-5 0 -10 13 -10 29 0 17 -6 31 -16 35 -8 3 -12 10 -9 16 9 15 62 12 68 -4 4
-9 18 -12 42 -10 24 1 38 -2 42 -12 3 -9 21 -14 54 -14 27 0 49 -4 49 -8 0
-12 181 -8 210 5 24 10 70 56 70 69 0 4 8 13 18 20 15 11 17 37 20 226 3 172
7 216 19 230 11 12 14 35 13 80 -4 86 -2 108 10 108 6 0 10 -6 10 -12 0 -7 9
-24 20 -38 11 -14 20 -31 20 -38 0 -7 5 -18 10 -25 35 -41 70 -91 70 -99 0 -5
16 -22 35 -39 19 -17 35 -37 35 -45 0 -8 6 -14 13 -14 6 0 31 -20 54 -44 37
-38 70 -60 82 -56 2 1 8 -5 13 -14 5 -9 16 -16 23 -16 8 0 15 -4 15 -10 0 -5
14 -10 30 -10 17 0 30 -4 30 -10 0 -6 31 -10 73 -10 58 0 84 5 122 24 51 26
115 82 115 102 0 6 17 29 38 51 20 21 49 54 64 73 14 19 42 52 62 74 20 21 36
43 36 49 0 5 11 20 25 33 14 13 25 27 25 31 0 5 14 23 30 41 17 18 30 40 30
48 0 8 3 14 8 14 4 0 23 34 42 75 19 41 39 73 45 71 5 -1 14 -18 20 -38 5 -19
16 -42 23 -51 8 -9 11 -25 8 -35 -4 -12 -1 -22 8 -25 8 -3 18 -26 21 -51 5
-29 12 -46 21 -46 8 0 14 -10 14 -25 0 -14 5 -25 10 -25 6 0 10 -13 10 -30 0
-16 5 -30 10 -30 6 0 10 -9 10 -19 0 -11 5 -23 10 -26 6 -3 10 -17 10 -31 0
-13 5 -24 10 -24 6 0 10 -11 10 -25 0 -14 5 -25 10 -25 6 0 10 -10 10 -23 0
-13 8 -32 18 -43 9 -11 22 -29 28 -40 6 -10 21 -24 32 -30 12 -6 30 -18 40
-27 9 -9 46 -21 82 -26 84 -14 250 -14 250 -1 0 6 14 10 30 10 17 0 30 5 30
10 0 6 9 10 20 10 11 0 20 4 20 9 0 5 26 24 57 42 59 35 273 238 273 259 0 7
11 21 25 32 14 11 25 26 25 33 0 8 5 17 11 20 13 9 49 -28 49 -50 0 -8 5 -15
10 -15 6 0 10 -27 10 -60 0 -33 4 -60 10 -60 6 0 10 -40 10 -100 0 -60 4 -100
10 -100 6 0 10 -16 10 -35 0 -19 5 -35 10 -35 6 0 10 -13 10 -30 0 -16 5 -30
10 -30 6 0 10 -9 10 -19 0 -10 7 -21 15 -25 8 -3 12 -12 9 -21 -4 -8 1 -17 10
-21 9 -3 13 -10 10 -15 -8 -13 109 -129 130 -129 9 0 16 -4 16 -10 0 -6 37
-10 90 -10 53 0 90 4 90 10 0 6 11 10 25 10 29 0 34 -25 10 -56 -8 -10 -15
-29 -15 -41 0 -12 -4 -24 -8 -27 -15 -9 -7 -109 11 -150 10 -22 42 -64 72 -93
31 -30 53 -59 49 -64 -3 -5 2 -12 10 -15 9 -3 16 -12 16 -19 0 -19 40 -85 51
-85 5 0 9 -5 9 -12 0 -19 64 -97 80 -98 8 0 31 -14 50 -30 19 -17 42 -30 52
-30 9 0 20 -4 23 -10 3 -5 17 -10 30 -10 13 0 27 -4 30 -10 3 -5 28 -10 54
-10 26 0 51 -4 57 -9 14 -15 133 -16 146 -3 17 17 118 16 118 -1 0 -7 -4 -17
-9 -23 -21 -21 -51 -86 -51 -109 0 -14 -4 -25 -10 -25 -5 0 -10 -13 -10 -29 0
-16 -6 -31 -15 -35 -23 -8 -22 -282 1 -314 10 -14 14 -36 12 -54 -3 -19 0 -32
9 -35 7 -3 13 -18 13 -34 0 -16 5 -29 10 -29 6 0 10 -9 10 -20 0 -11 4 -28 9
-38 37 -74 51 -106 51 -118 0 -8 5 -14 10 -14 6 0 10 -9 10 -20 0 -11 5 -20
10 -20 6 0 10 -9 10 -20 0 -11 3 -20 8 -20 4 0 13 -13 20 -30 6 -16 18 -43 24
-60 7 -16 16 -30 20 -30 5 0 8 -9 8 -20 0 -11 4 -20 8 -20 4 0 16 -15 27 -32
24 -42 132 -149 168 -167 15 -8 27 -18 27 -23 0 -4 6 -8 13 -8 7 0 23 -9 35
-20 12 -11 28 -20 37 -20 8 0 15 -4 15 -10 0 -5 9 -10 19 -10 10 0 22 -7 25
-16 4 -9 13 -14 21 -10 8 3 15 1 15 -4 0 -6 9 -10 20 -10 11 0 23 -6 26 -14 3
-8 12 -12 20 -9 7 3 17 -2 20 -11 3 -9 13 -15 22 -14 28 5 25 -31 -5 -57 -15
-13 -34 -25 -40 -25 -7 0 -19 -13 -28 -30 -8 -16 -29 -43 -45 -60 -17 -17 -30
-37 -30 -45 0 -8 -4 -15 -10 -15 -5 0 -7 -7 -4 -15 4 -8 -1 -17 -9 -21 -9 -3
-13 -12 -10 -20 3 -7 -2 -17 -11 -20 -10 -4 -16 -18 -16 -35 0 -16 -4 -29 -10
-29 -5 0 -10 -20 -10 -44 0 -25 -4 -48 -10 -51 -6 -4 -10 -88 -10 -221 0 -136
4 -214 10 -214 6 0 10 -24 10 -54 0 -30 5 -58 10 -61 6 -3 10 -24 10 -45 0
-21 5 -42 10 -45 6 -3 10 -19 10 -35 0 -15 6 -30 14 -33 8 -3 17 -19 21 -35 7
-33 31 -84 57 -121 10 -13 15 -28 13 -32 -3 -4 2 -9 10 -13 8 -3 15 -15 15
-26 0 -11 5 -20 10 -20 6 0 10 -8 10 -18 0 -11 9 -27 20 -37 11 -10 20 -24 20
-32 0 -7 5 -13 10 -13 6 0 10 -9 10 -20 0 -11 9 -25 20 -32 11 -7 20 -20 20
-29 0 -8 10 -25 23 -36 12 -11 51 -50 86 -87 36 -36 73 -66 83 -66 10 0 18 -3
18 -7 0 -12 51 -33 77 -33 13 0 23 -4 23 -10 0 -6 33 -10 80 -10 47 0 80 4 80
10 0 6 18 10 40 10 22 0 40 5 40 10 0 6 11 10 25 10 14 0 25 5 25 10 0 6 11
10 24 10 13 0 26 6 29 14 4 9 14 12 26 9 15 -4 21 -1 21 11 0 10 4 15 9 12 10
-6 91 43 91 55 0 4 12 10 26 13 14 4 36 18 48 31 13 14 27 25 32 25 5 1 25 14
44 30 19 17 38 30 43 30 5 0 26 18 47 40 21 22 45 40 52 40 16 0 78 118 78
149 0 12 5 21 10 21 6 0 10 15 10 33 0 18 4 37 9 43 20 21 41 334 22 334 -7 0
-11 29 -11 74 0 41 -4 78 -10 81 -5 3 -10 26 -10 51 0 24 -4 44 -10 44 -5 0
-10 20 -10 44 0 25 -4 48 -10 51 -5 3 -10 28 -10 56 0 27 -4 49 -10 49 -5 0
-10 16 -10 35 0 19 -4 35 -10 35 -5 0 -10 11 -10 24 0 14 -4 28 -10 31 -5 3
-10 14 -10 25 0 20 -37 97 -58 118 -7 8 -10 17 -7 21 2 5 -4 16 -15 26 -11 10
-20 22 -20 28 0 22 -156 195 -195 214 -16 9 -33 22 -38 29 -4 7 -14 11 -21 8
-7 -3 -16 2 -19 10 -4 9 -17 16 -31 16 -14 0 -28 5 -31 11 -4 5 -19 9 -33 8
-56 -4 -72 1 -72 21 0 10 9 24 20 30 11 6 20 17 20 25 0 7 6 20 13 27 15 15
47 76 47 90 0 5 7 16 15 24 8 9 15 24 15 35 0 10 5 19 10 19 6 0 10 13 10 29
0 17 5 33 10 36 5 3 10 31 10 61 0 30 5 54 10 54 6 0 10 30 10 69 0 39 -4 73
-10 76 -5 3 -10 26 -10 50 0 24 -4 47 -10 50 -5 3 -10 15 -10 26 0 11 -7 31
-16 44 -9 13 -13 28 -10 33 3 6 -1 15 -9 22 -9 7 -13 21 -10 31 3 9 1 20 -5
24 -5 3 -10 15 -10 26 0 10 -4 19 -10 19 -5 0 -10 8 -10 19 0 10 -7 24 -15 31
-8 7 -15 20 -15 30 0 9 -9 29 -20 43 -11 14 -20 31 -20 39 0 8 -9 24 -20 36
-11 12 -20 28 -20 37 0 8 -4 15 -10 15 -5 0 -10 8 -10 18 0 9 -14 31 -30 49
-17 18 -30 37 -30 42 0 6 -9 16 -20 23 -11 7 -20 16 -20 20 0 15 -75 77 -92
78 -10 0 -18 5 -18 10 0 6 -9 10 -20 10 -11 0 -20 5 -20 10 0 6 -6 10 -13 10
-7 0 -23 9 -35 20 -12 11 -25 20 -29 20 -4 0 -19 9 -33 20 -14 11 -35 20 -47
20 -13 0 -23 5 -23 10 0 6 -15 10 -34 10 -19 0 -38 5 -41 10 -8 13 -292 13
-297 1 -5 -15 -121 -17 -126 -3 -2 7 3 15 12 18 8 3 18 19 21 35 4 16 13 29
21 29 8 0 14 9 14 19 0 11 4 22 9 26 5 3 12 18 16 34 3 16 13 35 21 42 8 6 14
26 14 45 0 18 5 36 10 39 6 3 10 26 10 50 0 24 5 47 10 50 6 4 10 82 10 200 0
118 -4 196 -10 200 -5 3 -10 18 -10 33 0 38 -59 102 -93 102 -14 0 -29 5 -32
10 -4 6 -67 10 -155 10 -88 0 -151 -4 -155 -10 -3 -5 -46 -10 -95 -10 -49 0
-92 -4 -95 -10 -8 -13 -72 -13 -80 -1 -3 5 2 16 10 24 8 9 15 22 15 31 0 8 5
18 10 21 6 3 10 19 10 36 0 16 5 29 10 29 6 0 10 15 10 34 0 19 5 38 10 41 6
3 10 24 10 46 0 21 -4 39 -10 39 -5 0 -10 14 -10 30 0 17 -4 30 -9 30 -4 0
-20 18 -35 40 -14 22 -32 40 -39 40 -7 0 -19 9 -27 20 -8 11 -19 20 -26 20
-20 0 -73 31 -87 50 -7 10 -29 21 -50 25 -22 4 -37 13 -37 21 0 8 -7 14 -15
14 -8 0 -30 9 -49 19 -19 11 -37 17 -40 14 -3 -3 -17 2 -30 11 -14 9 -32 16
-41 16 -8 0 -15 5 -15 10 0 6 -13 10 -30 10 -16 0 -30 5 -30 10 0 6 -20 10
-44 10 -25 0 -48 5 -51 10 -4 6 -70 10 -165 10 -95 0 -161 -4 -165 -10 -12
-19 -45 -11 -45 10 0 11 -4 20 -10 20 -5 0 -10 6 -10 13 0 48 -117 193 -182
226 -16 8 -28 18 -28 23 0 4 -11 8 -24 8 -14 0 -28 5 -31 10 -3 6 -15 10 -26
10 -10 0 -19 5 -19 10 0 6 -13 10 -29 10 -17 0 -33 5 -36 10 -3 6 -21 10 -40
10 -19 0 -37 5 -40 10 -3 6 -24 10 -46 10 -21 0 -39 5 -39 10 0 6 -22 10 -49
10 -27 0 -51 5 -53 11 -2 7 -56 10 -156 10 -93 0 -152 3 -152 9 0 6 -18 10
-40 10 -22 0 -40 -4 -40 -10 0 -5 -15 -10 -33 -10 -66 0 -172 -71 -204 -137
-13 -28 -19 -32 -42 -26 -14 3 -28 9 -31 13 -9 13 -80 50 -95 50 -8 0 -15 5
-15 10 0 6 -11 10 -25 10 -14 0 -25 5 -25 10 0 6 -11 10 -25 10 -14 0 -25 5
-25 10 0 6 -13 10 -29 10 -16 0 -31 6 -33 12 -3 8 -19 12 -41 10 -22 -2 -37 1
-37 7 0 6 -21 11 -50 11 -27 0 -50 5 -50 10 0 6 -81 10 -224 10 -139 0 -227
-4 -231 -10z m350 -46 c188 -22 205 -25 211 -35 3 -5 18 -9 34 -9 16 0 32 -4
35 -10 3 -5 17 -10 30 -10 13 0 27 -4 30 -10 3 -5 13 -10 21 -10 23 0 133 -56
185 -94 l46 -34 -12 -68 c-31 -171 -107 -310 -287 -525 -21 -24 -74 -88 -118
-142 -45 -53 -94 -104 -110 -112 -33 -17 -140 -20 -170 -5 -11 6 -29 15 -40
20 -57 28 -102 62 -160 120 -73 74 -136 171 -210 325 -134 281 -139 302 -96
397 28 62 70 104 146 145 67 36 83 41 190 58 113 17 124 17 275 -1z m1205 -18
c25 -4 54 -11 65 -16 11 -5 36 -11 55 -14 33 -4 61 -11 165 -37 22 -6 52 -13
68 -16 15 -3 27 -9 27 -14 0 -5 6 -9 13 -9 18 0 67 -24 67 -32 0 -5 6 -8 13
-8 27 0 127 -118 156 -183 16 -36 35 -67 42 -69 9 -3 1 -24 -26 -69 -99 -165
-225 -329 -335 -435 -81 -79 -121 -107 -208 -146 -59 -27 -78 -30 -172 -32
-166 -2 -207 30 -282 214 -6 14 -14 33 -19 42 -5 10 -9 25 -9 33 0 8 -5 23
-10 33 -6 9 -39 88 -74 174 -67 166 -79 188 -103 188 -11 0 -14 6 -9 23 3 12
14 65 23 117 9 52 24 114 34 136 21 50 82 104 135 119 42 12 309 13 384 1z
m-2018 -296 c23 -11 48 -20 55 -20 7 0 13 -4 13 -10 0 -5 10 -10 23 -10 20 0
26 -9 41 -57 10 -32 24 -65 31 -73 30 -36 36 -59 21 -82 -15 -24 -23 -144 -35
-483 -5 -162 -9 -196 -26 -230 -33 -65 -89 -81 -210 -57 -180 35 -347 79 -353
94 -2 4 -10 8 -17 8 -22 0 -91 40 -144 84 -69 57 -149 96 -248 122 -7 2 -13
11 -13 19 0 9 -9 35 -19 58 -11 23 -25 70 -32 105 -28 133 28 222 218 345 24
15 45 27 48 27 6 0 124 53 157 71 10 5 25 9 33 9 8 0 15 5 15 10 0 6 6 10 13
10 8 0 27 6 43 14 87 42 133 60 169 67 64 12 170 2 217 -21z m2988 -115 c92
-9 194 -28 205 -37 5 -4 17 -8 27 -8 10 0 26 -4 36 -9 9 -5 35 -17 57 -27 140
-60 289 -147 340 -199 45 -45 67 -103 55 -143 -5 -15 -14 -45 -20 -67 -31
-108 -71 -190 -97 -202 -15 -7 -31 -13 -36 -13 -15 0 -180 -83 -218 -110 -20
-14 -72 -52 -114 -84 -105 -80 -147 -99 -217 -99 -45 0 -65 5 -92 24 -100 71
-185 257 -186 407 0 58 -17 185 -29 217 -4 11 -19 44 -34 74 -24 51 -26 81 -6
81 5 0 9 4 9 10 0 14 84 142 105 160 25 21 94 39 130 35 17 -3 55 -7 85 -10z
m-3875 -655 c3 -5 17 -10 29 -10 32 0 128 -45 179 -84 71 -53 149 -102 205
-126 30 -14 52 -30 52 -39 0 -9 8 -36 17 -61 48 -134 45 -300 -9 -422 -27 -63
-111 -182 -151 -213 -86 -69 -162 -109 -257 -135 -25 -7 -58 -16 -74 -21 -16
-5 -60 -9 -97 -9 -37 0 -79 -5 -93 -12 -24 -10 -30 -7 -98 64 -40 41 -88 83
-105 94 -18 10 -33 21 -33 25 0 3 -18 14 -41 24 -34 16 -39 22 -35 41 5 20
-24 121 -43 149 -6 9 -28 76 -61 190 -23 77 -32 175 -28 312 3 139 4 150 28
182 43 58 58 60 347 61 164 0 264 -4 268 -10z m5193 -50 c23 -14 32 -28 34
-47 1 -27 3 -42 8 -53 1 -3 4 -61 7 -130 9 -202 -15 -337 -85 -479 -39 -78
-62 -110 -135 -184 -49 -50 -95 -100 -103 -113 -16 -23 -20 -24 -209 -40 -74
-6 -189 6 -240 26 -98 37 -156 83 -215 171 -22 32 -40 61 -40 64 0 14 -69 113
-102 145 -63 64 -71 102 -42 207 9 32 19 77 21 101 5 40 10 46 105 117 102 78
218 141 298 164 25 7 56 17 70 22 25 8 116 24 225 38 33 5 130 9 215 10 138 1
159 -1 188 -19z m-5941 -841 c125 -28 177 -51 279 -121 94 -64 168 -146 206
-227 27 -59 30 -74 31 -180 1 -99 -3 -130 -27 -211 -109 -377 -231 -581 -455
-761 -124 -100 -184 -129 -263 -129 -55 0 -77 6 -147 40 -45 22 -87 40 -95 40
-7 0 -16 3 -20 7 -14 14 -102 32 -162 33 -54 0 -62 3 -81 28 -12 15 -42 54
-67 87 -25 33 -46 68 -46 78 0 9 -4 17 -10 17 -5 0 -10 9 -10 19 0 11 -4 22
-9 25 -11 7 -36 142 -41 221 -4 60 42 298 61 320 5 5 9 15 9 23 0 19 100 226
111 230 5 2 9 9 9 15 0 13 94 140 142 193 36 39 164 131 240 172 87 47 136 62
290 91 4 0 29 -4 55 -10z m6387 -102 c32 -15 84 -44 115 -65 31 -20 73 -46 94
-56 88 -45 231 -272 322 -511 14 -38 30 -79 35 -90 23 -56 34 -131 35 -230 0
-102 -5 -132 -37 -230 -21 -63 -109 -215 -130 -223 -4 -2 -8 -14 -8 -27 0 -22
-5 -25 -60 -31 -33 -4 -63 -11 -66 -15 -3 -5 -14 -9 -25 -9 -10 0 -27 -4 -37
-9 -9 -5 -35 -17 -57 -26 -22 -9 -80 -37 -128 -61 l-89 -44 -46 21 c-228 102
-307 152 -413 259 -56 56 -86 97 -112 151 -20 41 -61 126 -91 189 -61 126
-106 243 -106 275 0 12 -5 26 -11 32 -16 16 -15 269 1 318 27 84 71 185 81
185 4 0 10 8 14 19 3 10 15 29 26 42 12 13 41 48 66 77 37 41 52 52 76 52 17
0 44 4 61 10 75 23 131 28 276 27 147 -2 158 -3 214 -30z m-6934 -1489 c54
-17 144 -56 232 -99 10 -5 24 -9 31 -9 53 0 138 -84 188 -188 43 -88 40 -80
81 -237 17 -68 17 -457 0 -545 -30 -154 -36 -175 -44 -185 -4 -5 -8 -19 -8
-32 0 -13 -4 -31 -9 -41 -6 -9 -21 -41 -35 -70 -14 -29 -43 -74 -64 -100 -22
-26 -49 -72 -62 -103 -26 -64 -83 -147 -108 -156 -9 -4 -30 -16 -45 -27 -26
-19 -43 -21 -195 -21 -158 0 -206 6 -312 37 -204 61 -363 230 -424 450 -46
162 -68 634 -38 768 29 125 37 149 77 235 50 108 127 197 206 237 67 34 165
77 204 90 92 30 221 28 325 -4z m7501 -44 c81 -24 118 -46 183 -110 98 -98
191 -248 235 -384 39 -118 41 -126 41 -153 0 -14 4 -36 9 -49 5 -13 14 -50 21
-83 6 -33 15 -80 20 -105 25 -129 33 -269 21 -357 -16 -114 -65 -273 -83 -273
-5 0 -8 -6 -8 -13 0 -24 -92 -100 -282 -232 -58 -40 -193 -107 -248 -124 -25
-7 -53 -17 -62 -22 -23 -12 -153 -12 -176 0 -9 5 -35 17 -57 27 -53 23 -148
120 -213 216 -29 42 -52 79 -52 81 0 2 -27 53 -61 113 -97 173 -127 262 -155
454 -15 108 -18 368 -3 405 4 11 13 47 20 80 29 140 154 313 259 359 14 6 27
14 30 18 10 13 204 108 221 108 10 0 20 4 24 9 5 9 85 35 135 44 56 10 129 6
181 -9z"/>
<path id="2" d="M4745 12313 c-22 -3 -44 -9 -49 -14 -6 -5 -16 -9 -24 -9 -8 0 -41
-12 -73 -26 -48 -22 -59 -31 -59 -51 0 -21 3 -23 28 -17 15 4 47 18 72 31 64
34 204 55 294 43 72 -9 138 -22 166 -34 8 -3 22 -1 30 4 24 15 -1 44 -46 53
-125 26 -223 31 -339 20z"/>
<path id="3" d="M5890 12276 c-102 -23 -140 -53 -99 -79 12 -7 38 -5 90 8 167 41 325
9 524 -105 22 -12 48 -28 58 -35 26 -18 57 -7 57 20 0 18 -16 33 -72 67 -96
57 -182 98 -207 98 -11 0 -22 4 -25 9 -15 23 -246 35 -326 17z"/>
<path id="4" d="M3960 12010 c-8 -5 -25 -10 -38 -10 -12 0 -30 -4 -40 -10 -9 -5 -46
-19 -81 -31 -35 -12 -89 -35 -120 -52 -104 -57 -251 -176 -251 -203 0 -28 38
-12 101 42 110 96 246 167 412 216 58 17 77 27 77 40 0 20 -35 24 -60 8z"/>
<path id="5" d="M7070 11830 c-13 -8 -13 -11 2 -27 12 -11 21 -14 28 -7 11 11 180 -5
180 -18 0 -4 7 -8 15 -8 21 0 117 -59 145 -90 17 -18 73 -60 81 -60 5 0 9 11
9 25 0 14 -3 25 -7 25 -5 0 -26 18 -49 39 -57 55 -131 98 -199 116 -66 17
-182 20 -205 5z"/>
<path id="6" d="M2237 10073 c-10 -9 -9 -51 1 -55 5 -1 26 -26 46 -55 32 -45 37 -60
37 -107 0 -36 -8 -72 -24 -108 -13 -29 -26 -58 -28 -63 -2 -6 -17 -34 -33 -62
l-29 -52 -127 6 c-151 7 -200 0 -200 -27 0 -32 28 -38 187 -41 104 -3 156 -8
165 -17 6 -6 20 -12 29 -12 10 0 42 -23 73 -51 59 -54 89 -60 94 -20 4 29 -35
73 -98 109 -25 14 -47 27 -49 29 -4 3 19 53 29 63 7 7 45 87 60 127 7 17 15
65 18 105 l7 72 45 8 c28 5 63 4 91 -3 26 -7 54 -9 63 -6 41 16 -1 58 -75 76
-51 12 -58 12 -99 -8 -51 -25 -60 -26 -60 -7 0 7 -17 32 -37 54 -37 40 -73 59
-86 45z"/>
<path id="7" d="M8825 9828 c-4 -15 3 -42 18 -74 57 -115 57 -141 3 -209 l-23 -29
-49 19 c-45 16 -73 28 -172 72 -40 18 -82 10 -82 -15 0 -22 15 -31 136 -82 54
-23 103 -45 107 -50 4 -4 -1 -23 -12 -42 -33 -56 -36 -115 -9 -168 18 -35 29
-46 51 -48 24 -3 27 0 27 25 0 16 -7 38 -15 49 -26 34 -16 89 22 132 28 29 99
129 113 156 25 50 18 114 -24 199 -20 42 -41 77 -46 77 -5 0 -15 3 -24 6 -10
4 -17 -2 -21 -18z"/>
<path id="8" d="M1833 8685 c-7 -8 -13 -40 -13 -71 0 -61 -23 -138 -71 -243 -18 -38
-28 -73 -25 -86 6 -24 109 -136 141 -153 14 -8 16 -13 8 -24 -6 -7 -20 -40
-32 -74 -17 -50 -21 -83 -21 -196 0 -116 2 -137 18 -151 14 -13 20 -13 35 -3
15 11 17 31 17 140 0 163 17 229 75 289 23 24 61 54 85 68 45 25 69 53 57 66
-20 19 -76 6 -126 -30 -59 -43 -64 -42 -137 25 -44 41 -52 63 -35 96 17 32 42
93 62 149 40 118 13 257 -38 198z"/>
<path id="9" d="M9108 8612 c-68 -54 -97 -138 -67 -195 7 -12 11 -52 11 -90 -1 -60
-7 -82 -42 -152 -53 -107 -53 -149 -1 -122 19 10 56 71 103 169 19 41 21 129
3 194 -15 56 -16 69 -4 92 20 41 40 61 76 79 25 12 33 21 31 37 -5 37 -55 32
-110 -12z"/>
<path id="10" d="M9227 8183 c-13 -12 -7 -35 21 -76 44 -66 52 -91 59 -199 l6 -101
-24 8 c-13 4 -81 10 -150 12 -95 4 -133 2 -153 -9 -25 -13 -25 -15 -10 -36 15
-22 21 -23 132 -21 65 1 134 -2 155 -6 34 -7 37 -10 37 -40 0 -33 12 -78 36
-131 17 -39 83 -96 102 -89 7 3 18 5 23 5 21 0 6 42 -26 71 -42 39 -55 76 -54
154 4 148 1 223 -8 265 -28 122 -110 230 -146 193z"/>
<path id="11" d="M4704 11262 c-5 -4 -18 -43 -27 -87 -10 -44 -20 -90 -23 -101 -8 -30
33 -40 61 -15 69 63 158 10 141 -83 -14 -74 -96 -100 -146 -46 -25 27 -70 41
-70 23 0 -24 45 -76 77 -90 69 -28 138 -2 173 67 36 71 18 153 -42 190 -39 24
-63 25 -101 5 l-29 -15 7 43 c4 23 11 46 15 51 5 5 39 9 77 10 66 1 68 2 71
29 l3 27 -88 0 c-48 0 -93 -4 -99 -8z"/>
<path id="12" d="M5097 11245 c-10 -14 -36 -35 -57 -47 -28 -16 -40 -30 -40 -45 0 -29
5 -28 58 2 l42 24 0 -160 0 -159 25 0 25 0 0 205 c0 189 -1 205 -17 205 -10 0
-26 -12 -36 -25z"/>
<path id="13" d="M5866 11249 c-48 -38 -60 -75 -61 -184 0 -112 11 -147 56 -183 88
-70 209 -4 209 113 0 109 -124 174 -198 104 -20 -18 -22 -18 -22 -2 0 38 22
93 43 108 34 24 84 19 103 -10 10 -16 26 -25 41 -25 22 0 24 3 19 28 -4 15
-18 37 -32 50 -34 30 -120 31 -158 1z m107 -181 c53 -28 64 -97 22 -142 -54
-59 -146 -13 -145 72 1 61 68 100 123 70z"/>
<path id="14" d="M6240 11229 c-19 -21 -45 -43 -57 -48 -24 -11 -32 -51 -10 -51 7 0
29 11 50 25 l37 26 0 -161 0 -160 25 0 25 0 0 205 c0 189 -1 205 -17 204 -10
-1 -34 -18 -53 -40z"/>
<path id="15" d="M4355 10966 c-17 -7 -39 -29 -50 -49 -21 -39 -20 -41 10 -51 16 -4
23 1 33 23 13 29 36 41 84 41 29 0 68 -40 68 -70 0 -24 -45 -78 -108 -130 -53
-44 -112 -121 -112 -147 0 -10 31 -13 135 -13 l135 0 0 25 c0 25 0 25 -95 25
-52 0 -95 4 -95 8 0 5 28 32 61 61 115 96 145 154 116 223 -25 59 -111 85
-182 54z"/>
<path id="16" d="M4015 10933 c-7 -43 -25 -130 -31 -155 -8 -27 32 -33 62 -9 89 70
191 -41 118 -128 -36 -43 -85 -43 -124 -1 -25 27 -70 41 -70 23 0 -24 45 -76
77 -90 100 -41 203 43 190 156 -9 83 -100 137 -169 100 -19 -10 -20 -9 -13 33
4 23 9 46 12 51 2 4 38 7 79 7 72 0 74 1 74 25 0 25 0 25 -100 25 l-99 0 -6
-37z"/>
<path id="17" d="M6670 10913 c-105 -38 -137 -268 -51 -364 67 -75 169 -62 212 28 30
63 22 117 -25 160 -30 27 -44 33 -82 33 -31 0 -56 -7 -76 -22 l-31 -21 7 39
c10 51 34 91 60 98 40 11 63 6 86 -19 13 -14 34 -25 47 -25 27 0 28 2 7 41
-23 45 -101 71 -154 52z m105 -218 c33 -32 32 -75 -1 -114 -35 -42 -81 -42
-123 0 -59 59 -25 139 59 139 30 0 47 -6 65 -25z"/>
<path id="18" d="M6962 10904 c-20 -9 -39 -28 -49 -49 -18 -38 -18 -40 13 -49 17 -5
23 -2 28 19 7 28 40 45 86 45 31 0 70 -39 70 -70 0 -24 -45 -78 -108 -130 -53
-44 -112 -121 -112 -147 0 -10 31 -13 135 -13 l135 0 0 25 c0 25 0 25 -95 25
-52 0 -95 4 -95 8 0 5 28 32 61 61 116 97 145 154 115 225 -25 60 -109 83
-184 50z"/>
<path id="19" d="M3850 10269 c-35 -8 -90 -58 -90 -83 0 -28 37 -25 59 5 37 50 131 36
131 -20 0 -34 -15 -49 -58 -57 -24 -5 -32 -12 -32 -28 0 -19 6 -22 36 -22 45
0 74 -31 74 -79 0 -45 -45 -84 -90 -79 -28 3 -69 36 -70 57 0 4 -11 7 -25 7
-62 0 7 -102 78 -115 76 -15 157 52 157 128 0 43 -30 107 -51 107 -6 0 1 14
16 32 21 25 25 38 21 62 -13 63 -82 101 -156 85z"/>
<path id="20" d="M3485 10248 c-28 -124 -35 -156 -35 -174 0 -32 33 -36 65 -8 60 52
135 13 135 -69 0 -64 -24 -91 -81 -89 -36 2 -49 8 -69 32 -33 40 -65 41 -55 3
14 -60 85 -101 150 -89 23 5 46 20 70 48 30 36 35 48 35 94 0 67 -12 93 -57
123 -35 23 -68 24 -115 6 -15 -6 -16 -2 -11 32 9 58 17 63 100 63 71 0 74 1
71 23 -3 21 -8 22 -100 25 -94 3 -98 2 -103 -20z"/>
<path d="M7195 10221 c-58 -24 -85 -93 -85 -213 0 -75 4 -99 20 -125 93 -153
305 -34 236 132 -31 72 -127 96 -182 44 l-24 -22 0 27 c0 96 88 152 144 91 24
-25 66 -34 66 -14 0 25 -36 69 -63 79 -35 12 -84 12 -112 1z m114 -217 c59
-75 -19 -177 -102 -132 -34 17 -46 39 -47 81 0 52 27 77 84 77 36 0 48 -5 65
-26z"/>
<path d="M7505 10220 c-23 -9 -59 -48 -68 -72 -4 -11 1 -18 15 -22 25 -6 38 0
38 18 0 15 42 36 73 36 33 0 67 -28 67 -54 0 -29 -17 -44 -58 -52 -24 -5 -32
-12 -32 -29 0 -18 6 -22 32 -22 38 0 78 -41 78 -81 0 -39 -43 -82 -82 -82 -22
0 -40 10 -63 34 -24 25 -38 33 -54 29 -26 -7 -26 -10 -1 -51 21 -35 72 -62
115 -62 62 0 135 70 135 129 0 37 -23 86 -47 99 -15 9 -14 12 5 37 67 85 -44
191 -153 145z"/>
<path d="M2935 9358 c-9 -30 -35 -162 -35 -179 0 -28 36 -33 66 -10 49 39 120
20 130 -35 14 -74 -19 -124 -83 -124 -32 0 -73 28 -73 50 0 6 -12 10 -26 10
-23 0 -25 -3 -20 -27 21 -90 171 -109 229 -31 24 32 34 120 18 160 -21 56
-100 81 -163 54 -21 -10 -23 2 -7 57 l10 37 79 0 c79 0 80 0 80 25 l0 25 -100
0 c-72 0 -102 -4 -105 -12z"/>
<path d="M3365 9356 c-6 -8 -47 -66 -92 -129 -53 -74 -83 -124 -83 -141 l0
-26 90 0 90 0 0 -45 c0 -41 2 -45 25 -45 23 0 25 4 25 45 0 41 2 45 25 45 20
0 25 5 25 25 0 20 -5 25 -25 25 l-25 0 0 130 c0 128 0 130 -23 130 -12 0 -27
-6 -32 -14z m5 -166 l0 -80 -55 0 c-30 0 -55 4 -55 9 0 9 101 151 107 151 2 0
3 -36 3 -80z"/>
<path d="M7570 9322 c-44 -21 -76 -85 -85 -165 -10 -96 2 -143 50 -193 39 -42
45 -44 96 -44 62 0 91 19 115 76 50 119 -57 235 -166 179 -15 -8 -30 -20 -33
-27 -3 -7 -6 4 -6 26 -1 40 31 106 52 106 7 0 22 3 34 6 15 4 30 -3 54 -25 31
-30 69 -41 69 -21 0 28 -35 73 -65 86 -45 18 -73 18 -115 -4z m115 -207 c34
-35 34 -87 -1 -122 -22 -22 -32 -25 -71 -20 -24 2 -49 9 -55 15 -17 17 -22
100 -7 118 33 40 98 44 134 9z"/>
<path d="M7969 9308 c-12 -13 -29 -34 -38 -48 -27 -43 -115 -164 -128 -178 -7
-7 -13 -24 -13 -37 0 -24 2 -24 93 -27 l92 -3 3 -48 c3 -43 5 -48 25 -45 19 3
22 10 25 51 3 42 5 47 28 47 19 0 24 5 24 25 0 20 -5 25 -25 25 l-25 0 0 130
c0 122 -1 130 -20 130 -10 0 -29 -10 -41 -22z m11 -163 l0 -75 -60 0 -60 0 12
25 c6 14 14 25 18 25 4 0 22 22 41 50 19 27 37 50 42 50 4 0 7 -34 7 -75z"/>
<path d="M2626 8057 c-10 -50 -19 -99 -20 -107 -2 -23 41 -24 70 -1 36 28 75
26 109 -5 24 -22 27 -31 22 -70 -6 -61 -29 -84 -83 -84 -37 0 -47 5 -66 30
-35 47 -78 39 -53 -10 33 -64 118 -90 185 -57 32 15 70 90 70 137 0 91 -89
151 -172 115 -21 -8 -23 3 -7 58 l10 37 74 0 c73 0 75 1 75 25 0 25 0 25 -97
25 l-98 0 -19 -93z"/>
<path d="M2946 8057 c-10 -50 -19 -99 -20 -107 -2 -24 47 -24 69 0 36 40 112
16 130 -41 11 -33 -4 -87 -28 -104 -31 -22 -89 -19 -115 5 -12 12 -22 25 -22
30 0 6 -11 10 -25 10 -36 0 -31 -22 13 -70 35 -36 44 -40 88 -40 66 0 95 17
122 70 26 51 28 87 8 135 -26 61 -95 88 -158 60 -21 -9 -23 3 -7 58 l10 37 74
0 c73 0 75 1 75 25 0 25 0 25 -97 25 l-98 0 -19 -93z"/>
<path d="M7950 8132 c-21 -10 -44 -34 -60 -62 -21 -39 -25 -58 -25 -136 0 -97
11 -130 54 -171 49 -47 142 -42 185 9 51 62 47 148 -10 197 -42 38 -91 41
-148 10 l-38 -20 7 38 c10 56 52 103 91 103 12 0 36 -11 52 -25 26 -22 72 -34
72 -20 0 23 -37 69 -65 81 -45 18 -73 18 -115 -4z m115 -207 c52 -51 16 -145
-54 -145 -72 0 -117 58 -91 119 22 54 103 69 145 26z"/>
<path d="M8236 8118 c-22 -110 -33 -184 -29 -190 8 -14 34 -8 60 12 49 38 120
17 138 -41 11 -33 -4 -87 -28 -104 -31 -22 -93 -19 -117 5 -11 11 -20 25 -20
30 0 6 -11 10 -25 10 -34 0 -32 -19 9 -66 32 -38 36 -39 96 -39 60 0 64 1 96
39 94 109 11 272 -117 227 l-31 -11 7 43 c4 23 9 45 12 50 2 4 38 7 79 7 72 0
74 1 74 25 0 25 0 25 -100 25 -95 0 -100 -1 -104 -22z"/>
<path d="M1785 5951 c-3 -6 -28 -11 -56 -11 -27 0 -49 -4 -49 -10 0 -5 -13
-10 -29 -10 -16 0 -31 -6 -34 -14 -4 -9 -14 -12 -27 -9 -12 3 -25 2 -29 -3
-12 -18 -62 -45 -71 -39 -6 4 -13 -1 -16 -9 -3 -9 -14 -16 -24 -16 -10 0 -23
-7 -30 -15 -7 -8 -18 -15 -24 -15 -6 0 -26 -16 -43 -35 -18 -19 -35 -35 -39
-35 -7 0 -88 -90 -90 -99 -3 -20 -25 -59 -42 -74 -11 -11 -18 -25 -15 -33 3
-8 -2 -17 -12 -20 -11 -5 -15 -14 -11 -29 4 -15 1 -25 -9 -29 -9 -3 -15 -18
-15 -36 0 -16 -5 -30 -11 -30 -7 0 -9 -10 -5 -25 5 -18 2 -27 -9 -31 -13 -5
-15 -32 -15 -164 0 -95 4 -161 10 -165 6 -3 10 -24 10 -46 0 -21 5 -39 10 -39
6 0 10 -16 10 -36 0 -19 7 -42 16 -51 10 -10 13 -25 9 -44 -5 -22 -2 -31 10
-35 12 -5 15 -14 11 -35 -3 -19 0 -34 10 -44 9 -9 14 -24 11 -35 -3 -11 1 -24
9 -31 8 -6 14 -26 14 -45 0 -18 5 -36 10 -39 6 -3 10 -17 10 -30 0 -13 5 -27
11 -31 6 -3 8 -15 6 -26 -3 -11 0 -21 9 -25 8 -3 14 -13 14 -23 0 -11 5 -22
10 -25 6 -3 10 -15 10 -26 0 -10 5 -19 10 -19 6 0 10 -9 10 -20 0 -11 5 -20
10 -20 6 0 10 -9 10 -20 0 -11 5 -20 10 -20 6 0 10 -7 10 -17 0 -17 158 -178
167 -169 3 2 20 -4 39 -15 19 -10 41 -19 48 -19 7 0 19 -7 27 -16 7 -9 22 -14
36 -11 13 2 28 -2 34 -9 8 -10 27 -12 69 -7 50 5 62 3 85 -15 l26 -21 -38 -43
c-45 -51 -66 -85 -58 -97 3 -5 -2 -11 -10 -15 -8 -3 -15 -14 -15 -25 0 -11 -4
-23 -10 -26 -5 -3 -10 -22 -10 -41 0 -19 -4 -34 -10 -34 -6 0 -10 -33 -10 -79
0 -44 -4 -83 -10 -86 -5 -3 -10 -21 -10 -40 0 -19 5 -37 10 -40 6 -3 10 -42
10 -86 0 -46 4 -79 10 -79 6 0 10 -15 10 -34 0 -19 5 -38 10 -41 6 -3 10 -19
10 -34 0 -16 7 -34 15 -41 9 -7 13 -21 10 -31 -4 -11 -2 -19 4 -19 6 0 11 -9
11 -20 0 -11 6 -23 14 -26 8 -3 12 -12 9 -20 -3 -8 -1 -14 5 -14 6 0 15 -12
21 -27 6 -16 20 -41 31 -58 11 -16 23 -37 27 -46 13 -26 62 -84 163 -190 52
-55 97 -104 98 -110 2 -5 12 -9 22 -9 9 0 23 -7 30 -15 7 -8 37 -27 69 -42 31
-15 58 -31 59 -35 2 -4 15 -8 28 -8 13 0 24 -4 24 -10 0 -5 9 -10 19 -10 11 0
23 -4 26 -10 3 -5 18 -10 33 -10 15 0 35 -7 45 -15 11 -7 26 -11 34 -8 8 3 24
1 36 -6 12 -6 74 -12 137 -13 96 -3 114 -5 111 -18 -2 -8 -4 -21 -5 -29 -2 -8
-12 -22 -24 -32 -12 -9 -22 -22 -22 -27 0 -9 -16 -45 -51 -114 -5 -10 -9 -27
-9 -37 0 -11 -4 -23 -10 -26 -5 -3 -10 -19 -10 -35 0 -16 -4 -32 -10 -35 -5
-3 -10 -28 -10 -56 0 -27 -4 -49 -10 -49 -6 0 -10 -43 -10 -110 0 -67 4 -110
10 -110 6 0 10 -10 10 -22 0 -13 9 -34 20 -48 11 -14 20 -29 20 -35 0 -15 45
-65 58 -65 6 0 27 -9 47 -20 20 -11 51 -20 70 -20 19 0 35 -4 35 -10 0 -5 23
-10 50 -10 28 0 50 5 50 10 0 6 24 10 54 10 30 0 58 4 61 10 3 5 22 10 41 10
19 0 34 5 34 10 0 6 18 10 40 10 36 0 40 -3 40 -24 0 -14 -4 -28 -10 -31 -5
-3 -10 -19 -10 -34 0 -15 -6 -33 -12 -39 -10 -10 -10 -17 0 -32 6 -11 12 -27
12 -35 0 -8 4 -15 8 -15 4 0 15 -12 24 -28 20 -33 75 -92 87 -92 4 0 22 -13
39 -30 18 -16 38 -30 46 -30 7 0 19 -7 26 -15 12 -15 107 -65 124 -65 5 0 17
-7 26 -15 9 -8 39 -18 66 -21 27 -4 57 -13 66 -21 10 -9 25 -12 37 -8 15 4 23
1 27 -10 5 -12 17 -16 51 -14 28 2 47 -2 52 -10 6 -9 20 -11 48 -6 30 5 43 2
53 -9 10 -12 33 -16 105 -16 52 0 95 3 97 8 2 4 20 15 40 24 36 17 37 17 52
-7 9 -13 16 -29 16 -35 0 -5 6 -10 13 -10 6 0 28 -14 47 -30 19 -16 41 -30 48
-30 6 0 12 -4 12 -10 0 -5 7 -10 15 -10 8 0 30 -9 50 -20 20 -11 44 -20 55
-20 10 0 22 -4 25 -10 3 -5 24 -10 46 -10 21 0 39 -4 39 -10 0 -13 257 -13
265 0 3 5 19 10 35 10 16 0 32 5 35 10 3 6 17 10 31 10 13 0 24 5 24 10 0 6 9
10 20 10 11 0 20 5 20 10 0 6 9 10 20 10 11 0 20 5 20 10 0 6 9 10 20 10 11 0
20 5 20 10 0 6 9 10 20 10 11 0 20 5 20 10 0 6 8 10 18 10 9 0 23 9 30 20 12
20 52 28 52 11 0 -12 87 -100 125 -127 83 -59 116 -71 198 -68 45 2 77 -1 77
-6 0 -6 51 -10 125 -10 77 0 125 4 125 10 0 6 23 10 50 10 28 0 50 5 50 10 0
6 9 10 20 10 11 0 20 5 20 10 0 6 8 10 17 10 19 0 103 86 103 106 0 8 5 14 10
14 6 0 10 9 10 20 0 11 5 20 10 20 6 0 10 9 10 19 0 34 18 33 44 -2 14 -19 26
-37 26 -41 0 -12 28 -36 42 -36 8 0 20 -9 28 -20 8 -12 26 -20 42 -20 15 0 30
-5 33 -10 8 -13 272 -13 280 0 3 6 24 10 46 10 21 0 48 5 59 10 11 5 29 14 40
20 11 5 29 10 40 10 11 0 20 5 20 10 0 6 8 10 18 10 11 0 27 9 37 20 10 11 23
20 29 20 16 0 118 108 135 143 8 15 18 27 23 27 4 0 8 9 8 20 0 11 5 20 10 20
6 0 10 9 10 20 0 11 5 20 10 20 6 0 10 13 10 29 0 17 6 31 16 35 12 5 15 18
13 61 -1 30 0 58 4 62 4 3 7 37 7 75 l0 68 29 0 c17 0 33 -5 36 -10 3 -6 19
-10 36 -10 16 0 29 -4 29 -10 0 -5 20 -10 45 -10 25 0 45 -4 45 -10 0 -6 31
-10 74 -10 41 0 78 -4 81 -10 3 -5 19 -10 36 -10 16 0 29 5 29 10 0 6 20 10
45 10 25 0 55 6 67 13 35 19 88 74 88 90 0 8 7 17 15 21 8 3 12 12 9 21 -3 8
-1 15 5 15 6 0 11 13 11 29 0 16 6 31 14 34 11 4 13 16 9 41 -4 24 0 44 11 60
21 32 21 119 0 150 -9 15 -14 42 -13 69 2 25 -2 51 -8 59 -6 7 -14 48 -18 91
-5 52 -12 80 -21 84 -8 3 -14 20 -14 39 0 19 -4 34 -10 34 -5 0 -10 16 -10 35
0 34 12 46 25 25 4 -6 27 -9 53 -7 30 3 55 -1 70 -11 20 -13 25 -13 40 0 12
10 33 14 68 11 37 -2 55 1 64 12 7 8 25 15 41 15 15 0 31 5 34 11 4 6 13 8 20
5 7 -2 16 2 19 10 3 8 11 14 19 14 18 0 67 23 67 33 0 4 9 7 20 7 11 0 20 5
20 10 0 6 6 10 13 10 6 0 28 14 47 30 19 16 39 30 43 30 4 0 22 13 40 30 18
16 37 30 42 30 13 0 205 195 205 208 0 5 18 28 39 50 22 22 45 51 52 64 7 13
20 29 31 36 10 7 18 22 18 33 0 10 5 19 10 19 6 0 10 14 10 30 0 18 6 33 15
36 10 4 13 14 9 30 -4 17 -1 26 10 30 9 4 16 18 16 34 0 16 5 32 11 35 6 4 7
19 4 36 -5 20 -1 38 9 54 23 34 23 223 1 231 -11 5 -14 15 -9 39 3 19 1 35 -5
39 -6 4 -11 20 -11 36 0 16 -7 30 -16 34 -8 3 -13 10 -9 15 3 5 0 13 -5 16
-11 7 -30 46 -36 72 -1 6 -11 22 -23 35 -41 45 -81 96 -81 102 0 3 38 6 85 6
50 0 85 4 85 10 0 6 13 10 28 10 29 0 87 24 97 40 3 5 12 7 19 4 7 -3 16 2 20
11 3 9 10 14 14 11 5 -3 26 11 47 30 21 19 43 34 48 34 14 0 77 67 77 81 0 6
14 25 30 41 17 15 30 35 30 43 0 8 5 15 10 15 6 0 10 9 10 20 0 11 5 20 10 20
6 0 10 9 10 20 0 11 5 20 10 20 6 0 10 11 10 24 0 14 5 28 10 31 6 3 10 17 10
30 0 13 5 27 10 30 6 3 10 17 10 30 0 13 5 27 10 30 6 3 10 19 10 34 0 16 6
34 14 40 7 6 11 22 8 36 -2 15 0 25 7 25 6 0 11 17 11 40 0 22 5 40 10 40 6 0
10 19 10 43 0 24 6 49 13 56 15 15 16 31 23 304 4 165 3 217 -7 217 -7 0 -10
10 -6 29 4 20 2 31 -8 35 -8 3 -15 14 -15 24 0 23 -60 142 -72 142 -4 0 -8 7
-8 15 0 21 -122 146 -191 197 -33 23 -59 46 -59 51 0 4 -4 6 -9 2 -6 -3 -26 4
-46 15 -19 11 -42 20 -50 20 -8 0 -15 7 -15 16 0 12 -6 15 -24 10 -14 -3 -28
-1 -34 7 -6 7 -23 14 -38 15 -16 1 -33 7 -38 12 -13 13 -243 13 -251 0 -3 -5
-21 -10 -39 -10 -19 0 -39 -6 -46 -14 -6 -8 -17 -13 -24 -10 -7 3 -19 -2 -26
-11 -7 -8 -18 -15 -25 -15 -7 0 -24 -10 -39 -21 -15 -12 -29 -19 -32 -16 -3 3
-15 -5 -28 -17 -12 -11 -36 -32 -52 -46 -49 -43 -99 -103 -125 -150 -13 -25
-27 -46 -32 -48 -4 -2 -7 -12 -7 -23 0 -10 -4 -19 -10 -19 -5 0 -10 -9 -10
-19 0 -11 -4 -23 -10 -26 -5 -3 -10 -14 -10 -25 0 -10 -6 -20 -14 -23 -8 -3
-18 -26 -21 -51 -4 -25 -11 -46 -16 -46 -5 0 -9 -11 -9 -24 0 -13 -6 -29 -14
-35 -8 -7 -18 -37 -22 -67 -3 -30 -10 -54 -14 -54 -4 0 -10 -26 -13 -57 -4
-32 -15 -104 -27 -161 -21 -107 -27 -261 -11 -278 5 -5 12 -29 15 -54 10 -89
19 -125 31 -135 7 -5 16 -26 19 -46 4 -21 13 -42 21 -49 8 -7 15 -20 15 -29 0
-9 9 -23 20 -31 11 -8 20 -21 20 -29 0 -7 41 -54 90 -103 50 -49 88 -94 84
-99 -3 -5 -25 -9 -50 -9 -24 0 -44 -4 -44 -10 0 -5 -13 -10 -30 -10 -16 0 -30
-4 -30 -10 0 -5 -9 -10 -20 -10 -11 0 -28 -4 -38 -9 -74 -37 -106 -51 -118
-51 -8 0 -14 -3 -14 -8 0 -4 -15 -13 -32 -20 -62 -25 -83 -37 -91 -50 -5 -7
-12 -10 -17 -7 -5 3 -25 -10 -44 -30 -19 -19 -42 -35 -49 -35 -8 0 -36 -26
-61 -57 -26 -32 -54 -66 -62 -76 -7 -9 -14 -22 -14 -27 0 -6 -4 -10 -8 -10 -5
0 -14 -16 -22 -35 -8 -19 -17 -35 -22 -35 -4 0 -8 -7 -8 -15 0 -8 -9 -30 -20
-50 -11 -20 -20 -44 -20 -55 0 -10 -4 -22 -10 -25 -5 -3 -10 -19 -10 -35 0
-15 -7 -30 -15 -34 -8 -3 -14 -16 -14 -28 1 -41 -14 -103 -27 -111 -9 -5 -11
-18 -7 -39 5 -23 2 -34 -12 -44 -11 -8 -15 -19 -11 -30 3 -9 1 -23 -6 -31 -6
-8 -11 -34 -9 -58 2 -31 -2 -44 -13 -48 -21 -8 -23 -132 -3 -140 9 -3 17 -30
21 -68 4 -40 12 -66 21 -72 8 -4 15 -17 15 -27 0 -11 5 -20 10 -20 6 0 10 -5
10 -12 0 -6 9 -22 21 -34 22 -24 18 -47 -6 -37 -8 3 -15 0 -15 -6 0 -6 -13
-11 -30 -11 -16 0 -30 -4 -30 -10 0 -5 -11 -10 -25 -10 -16 0 -25 -6 -25 -16
0 -9 -6 -14 -13 -11 -7 3 -20 0 -28 -7 -28 -20 -92 -71 -103 -82 -6 -5 -18
-13 -27 -16 -21 -8 -143 -154 -189 -225 -18 -29 -37 -53 -42 -53 -4 0 -8 -9
-8 -19 0 -11 -4 -23 -10 -26 -5 -3 -10 -13 -10 -21 0 -8 -9 -24 -20 -36 -11
-12 -20 -28 -20 -35 0 -7 -4 -13 -10 -13 -5 0 -10 -9 -10 -20 0 -11 -4 -20
-10 -20 -5 0 -10 -9 -10 -20 0 -11 -4 -20 -9 -20 -5 0 -11 -24 -13 -52 -10
-116 68 -209 242 -290 l35 -17 -7 -127 c-15 -241 -94 -380 -271 -473 -29 -15
-64 -31 -78 -34 -13 -3 -51 -12 -84 -21 -91 -23 -278 -21 -330 4 -79 38 -115
93 -135 205 -7 39 -16 80 -21 93 -13 33 -11 109 3 151 18 53 64 117 139 196
37 39 83 88 102 110 37 42 95 75 162 93 22 6 59 15 81 21 23 6 62 11 87 11 32
0 47 5 51 16 8 21 9 20 -20 39 -21 13 -28 14 -41 4 -9 -8 -38 -12 -74 -11 -46
2 -61 -1 -65 -13 -4 -8 -18 -15 -34 -15 -16 0 -32 -4 -35 -10 -3 -5 -16 -10
-29 -10 -12 0 -32 -9 -44 -20 -12 -11 -26 -20 -31 -20 -6 0 -28 -19 -49 -43
-157 -168 -208 -226 -225 -254 -10 -18 -23 -33 -28 -33 -6 0 -8 -12 -7 -27 2
-22 -2 -29 -18 -31 -16 -2 -26 6 -38 33 -10 20 -24 39 -32 42 -8 3 -14 13 -14
22 0 9 -33 50 -72 91 -86 89 -123 120 -143 120 -8 0 -15 5 -15 10 0 6 -11 10
-24 10 -14 0 -28 5 -31 10 -3 6 -35 10 -70 10 -35 0 -67 -4 -70 -10 -3 -5 -15
-10 -26 -10 -10 0 -19 -4 -19 -10 0 -5 -7 -10 -15 -10 -8 0 -29 -13 -47 -30
-17 -16 -37 -30 -44 -30 -12 0 -74 -71 -74 -84 0 -4 -11 -17 -25 -30 -14 -13
-25 -27 -25 -32 -1 -5 -14 -25 -30 -44 -17 -19 -30 -40 -30 -47 0 -7 -4 -13
-10 -13 -5 0 -10 -9 -10 -20 0 -11 -4 -20 -10 -20 -5 0 -10 -9 -10 -20 0 -11
-4 -20 -9 -20 -5 0 -14 -14 -21 -30 -7 -17 -16 -30 -21 -30 -4 0 -9 -10 -11
-22 -4 -31 -26 -34 -38 -4 -5 14 -14 26 -20 26 -5 0 -10 14 -10 30 0 17 -4 30
-10 30 -5 0 -10 11 -10 25 0 14 -4 25 -10 25 -5 0 -10 11 -10 25 0 14 -4 25
-10 25 -5 0 -10 9 -10 19 0 11 -4 23 -10 26 -5 3 -10 15 -10 26 0 10 -5 28
-10 39 -6 11 -14 29 -20 40 -6 11 -10 29 -10 40 0 11 -4 20 -10 20 -5 0 -10 7
-10 15 0 17 -13 36 -44 63 -10 9 -26 24 -34 34 -8 9 -21 14 -27 11 -7 -2 -16
0 -20 6 -8 14 -132 14 -141 0 -3 -6 -15 -9 -25 -6 -10 3 -23 -1 -30 -9 -6 -8
-20 -14 -30 -14 -11 0 -19 -4 -19 -10 0 -5 -6 -10 -14 -10 -7 0 -20 -10 -29
-23 -8 -12 -52 -61 -99 -109 -46 -47 -90 -98 -98 -113 -8 -15 -26 -37 -40 -49
-14 -11 -31 -34 -39 -49 -8 -15 -17 -27 -21 -27 -14 0 -39 36 -39 55 -1 35
-12 89 -27 122 -8 17 -11 38 -8 47 4 10 0 18 -10 22 -9 4 -16 18 -16 33 0 15
-5 32 -12 39 -7 7 -9 12 -5 12 4 0 -4 21 -19 47 -29 54 -102 133 -121 133 -8
0 -16 7 -20 16 -3 8 -11 13 -19 10 -7 -3 -18 1 -24 9 -6 7 -19 11 -29 8 -9 -2
-23 3 -30 11 -18 21 -104 21 -136 0 -17 -11 -36 -14 -70 -9 -36 6 -50 4 -65
-10 -20 -18 -20 -17 -20 18 0 21 5 37 10 37 6 0 10 9 10 20 0 11 5 20 10 20 6
0 10 13 10 29 0 17 4 33 10 36 6 3 10 33 10 66 0 33 -4 59 -10 59 -5 0 -10 10
-10 23 0 12 -9 33 -20 47 -11 14 -20 30 -20 35 0 10 -116 100 -155 121 -11 6
-45 36 -75 67 -30 30 -58 53 -63 50 -4 -2 -18 7 -30 21 -12 14 -37 29 -55 32
-19 4 -36 13 -39 20 -3 8 -18 14 -34 14 -16 0 -29 5 -29 10 0 6 -27 10 -60 10
-53 0 -60 2 -60 20 0 11 5 20 10 20 6 0 10 9 10 19 0 11 5 23 10 26 6 3 10 15
10 26 0 10 3 19 8 19 9 0 32 49 32 71 0 9 6 22 14 28 7 6 11 22 8 36 -2 15 0
25 7 25 14 0 15 236 1 245 -5 3 -7 12 -3 20 3 9 -2 26 -11 40 -9 13 -16 33
-16 45 0 11 -4 20 -10 20 -5 0 -10 14 -10 30 0 17 -4 30 -10 30 -5 0 -10 11
-10 24 0 14 -4 28 -10 31 -5 3 -10 15 -10 26 0 10 -4 19 -10 19 -5 0 -10 9
-10 20 0 11 -4 20 -10 20 -5 0 -10 9 -10 19 0 11 -4 23 -10 26 -5 3 -10 15
-10 25 0 10 -3 20 -7 22 -5 2 -19 25 -33 53 -56 111 -222 325 -281 360 -9 6
-36 23 -60 40 -58 39 -88 55 -105 55 -8 0 -14 5 -14 10 0 6 -9 10 -20 10 -11
0 -20 5 -20 10 0 6 -11 10 -24 10 -14 0 -28 5 -31 10 -3 6 -15 10 -26 10 -30
0 -23 14 32 67 53 51 112 129 112 151 0 6 4 12 9 12 4 0 8 9 8 19 0 10 7 21
15 25 8 3 15 16 15 30 0 14 5 28 10 31 6 3 10 24 10 46 0 21 5 39 10 39 6 0
10 60 10 160 0 89 -4 160 -9 160 -5 0 -12 21 -15 48 -12 108 -19 138 -33 154
-10 11 -13 26 -9 43 4 14 2 25 -4 25 -5 0 -13 12 -16 28 -4 15 -11 32 -16 39
-5 7 -7 21 -4 31 4 12 1 22 -7 25 -7 2 -19 28 -27 56 -7 28 -17 51 -22 51 -4
0 -8 11 -8 25 0 14 -4 25 -10 25 -5 0 -10 11 -10 25 0 14 -4 25 -10 25 -5 0
-10 7 -10 15 0 15 -4 25 -28 72 -7 13 -12 30 -12 38 0 8 -4 15 -10 15 -5 0
-10 9 -10 19 0 11 -4 23 -10 26 -5 3 -10 14 -10 23 0 10 -9 24 -20 32 -11 8
-20 22 -20 32 0 10 -4 18 -10 18 -5 0 -10 6 -10 14 0 15 -128 146 -142 146 -5
0 -8 7 -8 15 0 8 -7 15 -15 15 -8 0 -24 9 -35 20 -12 12 -25 18 -30 15 -6 -4
-13 1 -16 9 -4 10 -18 16 -35 16 -16 0 -29 4 -29 9 0 20 -273 41 -285 22z
m225 -64 c57 -16 159 -67 205 -104 59 -46 185 -230 185 -269 0 -7 5 -14 10
-14 6 0 10 -6 10 -13 0 -7 11 -37 25 -66 158 -327 252 -731 215 -921 -22 -114
-32 -144 -65 -210 -25 -49 -60 -96 -110 -146 -71 -71 -74 -73 -106 -64 -47 14
-189 12 -246 -2 -27 -6 -75 -24 -109 -40 -47 -22 -75 -28 -126 -28 -99 0 -228
26 -305 61 -74 35 -169 122 -194 178 -8 17 -17 31 -21 31 -5 0 -8 6 -8 14 0 8
-10 34 -21 58 -40 80 -97 252 -123 368 -9 41 -21 91 -26 110 -15 53 -40 141
-50 176 -6 17 -10 79 -10 137 0 108 22 223 56 291 8 16 14 33 14 39 0 22 102
175 142 213 99 95 231 159 413 202 58 14 193 13 245 -1z m7085 -52 c28 -3 73
-13 100 -22 65 -20 195 -83 195 -94 0 -5 6 -9 14 -9 26 0 180 -163 222 -235
70 -121 84 -185 84 -375 0 -155 -9 -236 -41 -370 -6 -25 -13 -60 -16 -78 -3
-18 -9 -35 -14 -38 -5 -3 -9 -16 -9 -30 0 -13 -4 -32 -9 -42 -5 -9 -14 -37
-21 -62 -7 -25 -16 -53 -21 -62 -5 -10 -9 -25 -9 -33 0 -8 -4 -23 -9 -33 -5
-9 -21 -43 -36 -75 -35 -74 -112 -171 -178 -222 -60 -47 -150 -95 -177 -95
-11 0 -22 -4 -25 -10 -3 -5 -45 -10 -93 -10 -86 0 -166 17 -206 44 -25 16
-142 58 -171 61 -11 1 -30 3 -43 4 -13 0 -26 10 -31 24 -5 12 -42 54 -81 92
-128 125 -171 195 -208 336 -34 127 -45 257 -32 362 11 96 36 218 50 252 5 11
11 34 15 50 9 42 71 195 121 295 113 230 263 346 489 379 33 4 67 7 75 6 8 -2
38 -6 65 -10z m-6687 -1826 c26 -6 56 -14 67 -18 38 -15 80 -33 97 -42 10 -5
25 -9 33 -9 8 0 15 -3 15 -8 0 -4 21 -18 48 -32 84 -44 200 -158 282 -276 40
-59 151 -273 180 -349 4 -11 17 -44 29 -74 12 -29 21 -62 21 -72 0 -10 5 -21
10 -24 6 -3 10 -17 10 -30 0 -13 5 -27 10 -30 6 -4 10 -53 10 -115 0 -62 -4
-111 -10 -115 -5 -3 -10 -15 -10 -26 0 -10 -4 -27 -8 -37 -5 -9 -30 -61 -56
-115 -49 -100 -77 -137 -106 -137 -9 0 -42 -23 -74 -52 -43 -38 -68 -52 -95
-55 -119 -13 -320 14 -411 54 -75 33 -125 58 -128 66 -2 4 -9 7 -14 7 -18 0
-114 76 -186 149 -167 167 -279 363 -332 581 -19 75 -17 316 2 395 44 178 158
303 333 363 41 14 225 15 283 1z m6311 -41 c22 -7 41 -16 41 -20 0 -5 9 -8 19
-8 11 0 21 -3 23 -7 2 -5 23 -15 48 -24 27 -9 46 -23 48 -34 2 -9 28 -47 58
-84 49 -60 99 -150 135 -241 21 -54 19 -298 -4 -375 -10 -33 -22 -69 -26 -80
-5 -11 -19 -45 -31 -76 -34 -90 -195 -279 -361 -425 -80 -70 -222 -156 -312
-188 -51 -18 -99 -34 -107 -35 -192 -26 -303 12 -443 152 -93 93 -129 152
-151 250 -25 109 -22 138 38 360 9 31 23 83 31 115 36 132 117 325 152 360 7
7 13 17 13 21 0 14 125 131 180 169 59 40 136 82 151 82 4 0 44 17 87 39 77
37 93 43 177 61 51 11 181 5 234 -12z m-924 -1532 c36 -30 77 -62 94 -72 23
-14 30 -26 34 -63 6 -47 12 -74 42 -191 49 -196 60 -289 45 -382 -12 -80 -16
-90 -50 -161 -52 -107 -123 -133 -289 -106 -192 31 -396 108 -505 190 -48 36
-86 100 -86 146 0 26 58 155 73 161 4 2 7 8 7 13 0 5 15 33 34 62 18 28 49 77
69 107 73 114 207 239 317 295 36 19 129 54 143 55 5 0 37 -24 72 -54z m-4486
-1 c79 -32 142 -74 197 -129 23 -23 73 -63 111 -91 95 -67 146 -144 138 -206
-7 -60 -18 -95 -46 -155 -16 -34 -29 -66 -29 -72 0 -6 -19 -20 -42 -32 -24
-12 -67 -43 -96 -70 -72 -65 -142 -97 -312 -142 -106 -28 -158 -39 -213 -45
-86 -9 -204 37 -236 93 -9 16 -19 31 -22 34 -15 12 -31 120 -26 175 19 223 88
396 222 560 93 113 210 139 354 80z m750 -694 c113 -35 185 -120 217 -254 9
-34 19 -71 24 -82 8 -18 33 -105 61 -219 8 -31 6 -52 -6 -90 -30 -95 -37 -107
-78 -127 -51 -27 -152 -22 -322 15 -156 34 -230 58 -335 110 -105 53 -135 75
-207 149 l-75 79 6 46 c3 25 10 50 15 56 5 6 15 31 24 55 12 38 20 46 58 59
46 15 106 53 150 94 60 56 138 90 239 103 30 4 75 11 100 15 25 4 50 8 57 9 6
0 39 -8 72 -18z m967 -150 c29 -18 94 -126 94 -157 0 -8 4 -22 9 -32 13 -25
27 -62 40 -107 15 -49 17 -55 80 -186 28 -58 51 -109 51 -115 0 -5 9 -20 20
-34 23 -29 26 -52 6 -44 -12 5 -75 -24 -258 -117 -10 -5 -27 -9 -37 -9 -11 0
-23 -4 -26 -10 -8 -13 -282 -13 -290 0 -3 6 -19 10 -35 10 -16 0 -32 5 -35 10
-3 6 -15 10 -25 10 -36 0 -170 86 -196 125 -9 14 -22 21 -30 18 -16 -6 -18 10
-4 35 5 9 16 38 24 63 21 66 50 129 58 129 5 0 8 5 8 11 0 24 117 168 269 329
77 82 205 115 277 71z m931 -22 c46 -25 153 -129 191 -184 15 -22 42 -60 60
-83 37 -51 82 -144 82 -172 0 -11 5 -40 12 -64 9 -33 9 -51 1 -68 -54 -115
-73 -146 -110 -182 -83 -82 -95 -85 -330 -83 -237 2 -254 7 -352 96 -54 49
-141 166 -141 189 0 24 81 182 139 272 47 74 113 162 146 195 15 16 97 78 120
92 34 20 139 16 182 -8z"/>
<path d="M1839 5557 c-19 -15 -28 -56 -36 -162 -4 -64 -10 -84 -27 -101 -11
-11 -41 -48 -65 -82 -42 -59 -159 -172 -178 -172 -13 0 -53 -44 -53 -57 0 -17
34 -25 61 -14 13 6 42 24 64 40 22 17 51 38 64 48 l24 17 91 -95 c51 -53 102
-118 115 -145 13 -27 27 -57 32 -66 5 -10 9 -38 9 -63 l0 -45 -38 0 c-46 0
-189 -44 -213 -66 -10 -9 -15 -22 -13 -29 7 -16 55 -30 63 -18 3 5 26 15 51
22 25 7 58 17 74 22 70 21 219 4 293 -35 35 -18 73 -11 73 14 0 21 -31 50 -53
50 -9 0 -18 4 -21 9 -3 4 -20 11 -38 15 -105 21 -108 23 -108 71 0 93 -59 195
-187 322 -46 45 -83 85 -83 88 0 12 63 95 72 95 4 0 8 -7 8 -16 0 -28 112
-127 182 -161 67 -33 121 -42 133 -22 11 17 -20 43 -99 83 -84 43 -131 84
-152 135 -19 44 -20 164 -3 232 10 37 10 54 1 74 -13 28 -20 30 -43 12z"/>
<path d="M8977 5513 c-19 -18 -2 -123 37 -233 9 -25 16 -50 16 -57 0 -24 72
-134 124 -191 33 -35 79 -70 117 -90 68 -35 79 -38 97 -20 18 18 -2 43 -61 76
-54 31 -153 129 -173 173 -47 99 -77 188 -93 275 -10 55 -22 73 -47 74 -6 0
-14 -3 -17 -7z"/>
<path d="M9157 4919 c-83 -55 -184 -189 -209 -280 -7 -24 -14 -27 -85 -37 -43
-7 -96 -16 -118 -21 -22 -6 -53 -13 -70 -17 -55 -12 -71 -39 -36 -61 14 -9 29
-9 53 -2 46 14 111 28 193 42 79 14 164 3 209 -27 32 -20 65 -21 72 -1 8 21
-22 65 -44 65 -10 0 -22 4 -27 9 -6 5 -26 11 -45 13 -44 4 -43 16 13 110 50
83 88 126 145 162 46 29 51 42 25 62 -24 18 -23 18 -76 -17z"/>
<path d="M2352 3458 c-17 -17 -15 -24 16 -71 78 -114 115 -208 110 -277 -3
-38 -7 -46 -28 -52 -138 -40 -169 -52 -178 -74 -6 -12 -8 -25 -5 -28 12 -12
72 -6 115 12 24 11 72 22 108 26 75 9 70 9 135 -3 79 -15 105 -23 111 -32 3
-5 23 -9 45 -9 41 0 49 13 27 43 -21 27 -146 67 -210 67 l-58 0 0 60 c0 36 -8
82 -22 117 -32 88 -125 233 -148 233 -3 0 -11 -5 -18 -12z"/>
<path d="M8472 3473 c-70 -69 -142 -231 -142 -317 l0 -52 -67 -13 c-136 -24
-206 -54 -211 -88 -2 -15 4 -22 23 -27 15 -4 32 -3 38 3 7 5 41 18 76 30 101
33 219 25 338 -24 51 -20 73 -15 73 18 0 20 -11 28 -68 50 -37 15 -80 27 -95
27 -34 0 -60 53 -47 97 5 15 14 46 21 68 6 22 34 76 61 121 47 79 58 117 38
129 -6 4 -23 -6 -38 -22z"/>
<path d="M2824 5381 c-41 -25 -45 -33 -46 -83 0 -33 5 -47 23 -62 l24 -20 -34
-33 c-31 -31 -33 -37 -29 -84 4 -39 12 -58 35 -81 56 -55 166 -47 204 16 33
54 18 153 -27 170 -13 5 -12 11 11 38 35 41 29 91 -15 131 -37 33 -99 37 -146
8z m116 -51 c24 -24 25 -38 4 -68 -17 -24 -61 -30 -95 -12 -25 14 -26 75 -1
89 28 17 71 12 92 -9z m5 -165 c38 -37 31 -104 -11 -124 -39 -18 -73 -13 -99
14 -34 33 -33 78 1 110 35 32 78 32 109 0z"/>
<path d="M3125 5378 c-2 -7 -12 -53 -23 -101 l-20 -89 23 -10 c19 -8 27 -6 46
11 27 25 85 28 115 7 15 -11 19 -27 19 -71 0 -48 -4 -60 -24 -76 -31 -25 -85
-25 -111 1 -11 11 -20 25 -20 30 0 6 -11 10 -25 10 -34 0 -32 -27 5 -67 46
-49 126 -56 176 -14 70 58 71 187 2 235 -26 18 -90 21 -119 6 -23 -13 -24 -4
-9 52 l11 37 77 3 c71 3 77 5 80 26 3 22 1 22 -98 22 -72 0 -102 -4 -105 -12z"/>
<path d="M8020 5380 c-64 -5 -64 -5 -72 -40 -4 -19 -14 -63 -22 -98 l-14 -63
24 -11 c20 -9 27 -8 43 10 25 30 93 30 122 1 29 -29 23 -114 -11 -141 -35 -28
-84 -23 -113 12 -27 32 -67 41 -67 15 0 -8 15 -32 34 -53 32 -34 39 -37 90
-37 47 0 59 4 85 29 105 100 34 283 -95 247 -21 -6 -39 -9 -41 -7 -2 2 0 21 5
42 l8 39 79 5 c74 5 80 7 83 28 2 13 -2 22 -10 23 -7 0 -24 1 -38 2 -14 1 -54
0 -90 -3z"/>
<path d="M7590 5355 l0 -25 105 0 105 0 -36 -47 c-49 -64 -82 -132 -99 -205
-21 -88 -20 -98 10 -98 17 0 25 5 25 18 0 69 65 228 126 309 13 17 24 41 24
52 0 20 -5 21 -130 21 l-130 0 0 -25z"/>
<path d="M7230 4035 l0 -25 105 0 105 0 -33 -43 c-60 -79 -104 -182 -113 -270
-5 -45 -5 -47 18 -44 20 3 25 14 38 78 16 77 75 207 116 254 13 16 24 39 24
52 0 23 0 23 -130 23 l-130 0 0 -25z"/>
<path d="M7704 4038 c-20 -22 -107 -140 -152 -205 -12 -17 -22 -43 -22 -57 l0
-26 90 0 90 0 0 -49 c0 -42 3 -49 18 -46 9 2 20 4 25 4 4 1 7 21 7 46 0 41 2
45 25 45 20 0 25 5 25 25 0 20 -5 25 -25 25 l-25 0 0 130 c0 119 -2 130 -18
130 -10 0 -27 -10 -38 -22z m6 -158 l0 -80 -56 0 c-43 0 -55 3 -51 13 5 14
100 147 104 147 2 0 3 -36 3 -80z"/>
<path d="M3140 3963 c-38 -14 -60 -46 -60 -90 0 -32 6 -50 23 -66 l22 -22 -32
-31 c-96 -92 24 -243 153 -194 89 34 109 160 34 213 -20 14 -19 14 5 37 37 35
34 83 -9 126 -29 29 -41 34 -77 33 -24 0 -51 -3 -59 -6z m102 -60 c24 -21 23
-48 -2 -73 -24 -24 -72 -26 -94 -4 -22 21 -20 70 2 83 26 16 73 13 94 -6z m2
-164 c20 -15 26 -29 26 -57 0 -43 -7 -55 -37 -71 -35 -18 -72 -13 -98 14 -73
72 28 178 109 114z"/>
<path d="M3533 3945 c-7 -8 -13 -18 -13 -24 0 -5 -3 -11 -7 -13 -5 -1 -37 -43
-73 -93 -35 -49 -68 -91 -72 -93 -4 -2 -8 -19 -8 -38 l0 -34 90 0 90 0 0 -45
c0 -41 2 -45 24 -45 23 0 25 5 28 48 3 39 6 47 23 47 30 0 28 49 -2 53 -22 3
-23 6 -23 128 0 122 0 124 -22 124 -13 -1 -29 -7 -35 -15z m7 -162 l0 -78 -55
0 c-30 0 -55 5 -55 10 0 6 12 24 26 40 15 17 38 47 52 68 13 20 26 37 28 37 2
0 4 -35 4 -77z"/>
<path d="M3471 2843 c-45 -39 -54 -101 -19 -136 l24 -24 -28 -25 c-80 -73 -17
-208 97 -208 57 0 106 34 124 86 18 50 9 89 -27 122 l-28 25 24 24 c21 21 24
31 19 66 -8 57 -54 97 -112 97 -30 0 -50 -7 -74 -27z m121 -40 c40 -36 12 -93
-47 -93 -39 0 -65 22 -65 55 0 50 72 75 112 38z m9 -172 c31 -32 35 -50 17
-84 -28 -54 -93 -64 -133 -21 -27 30 -31 51 -14 88 24 51 87 59 130 17z"/>
<path d="M3779 2840 c-44 -36 -55 -66 -27 -74 14 -3 28 4 45 25 18 21 34 29
57 29 41 0 76 -25 76 -54 0 -29 -20 -47 -63 -55 -22 -5 -33 -13 -35 -28 -3
-18 2 -21 35 -21 44 0 83 -37 83 -78 0 -36 -51 -84 -89 -84 -28 0 -73 32 -82
59 -5 13 -49 3 -49 -11 0 -6 9 -23 21 -39 58 -82 175 -75 229 14 32 53 23 110
-23 147 -20 17 -20 17 3 48 20 27 22 37 14 69 -20 81 -127 110 -195 53z"/>
<path d="M7287 2830 c-43 -37 -52 -66 -24 -74 14 -3 29 4 48 25 31 33 71 38
107 13 44 -30 14 -94 -45 -94 -18 0 -23 -6 -23 -25 0 -22 3 -25 25 -19 19 5
31 -1 55 -24 38 -39 40 -79 4 -116 -38 -38 -78 -35 -119 8 -24 25 -38 33 -54
29 -26 -7 -26 -10 -1 -51 26 -42 81 -66 135 -59 55 8 115 71 115 122 0 41 -22
90 -47 103 -15 9 -14 12 5 37 58 73 3 155 -102 155 -36 0 -52 -6 -79 -30z"/>
<path d="M6927 2831 c-3 -11 -2 -22 1 -25 3 -3 52 -6 109 -6 l104 0 -34 -42
c-47 -58 -94 -155 -112 -230 -16 -70 -14 -78 21 -78 18 0 24 5 25 23 2 79 39
174 109 283 62 94 62 94 -89 94 -119 0 -129 -1 -134 -19z"/>
<path d="M4022 2290 c-55 -34 -69 -101 -27 -140 l24 -23 -29 -27 c-38 -36 -47
-73 -28 -124 21 -59 57 -81 129 -81 52 0 62 3 90 32 25 24 33 42 37 82 4 48 3
53 -30 84 l-35 33 24 18 c21 15 24 25 21 69 -3 46 -7 54 -37 74 -42 28 -95 30
-139 3z m112 -46 c37 -36 8 -94 -46 -94 -36 0 -68 24 -68 52 0 47 80 77 114
42z m10 -175 c33 -38 33 -73 1 -104 -51 -52 -147 -13 -137 55 7 44 14 58 34
68 42 20 75 14 102 -19z"/>
<path d="M4333 2293 c-18 -9 -40 -32 -48 -50 -18 -38 -19 -38 11 -47 16 -5 23
0 32 19 21 45 97 60 132 25 35 -35 26 -72 -32 -132 -29 -29 -64 -62 -78 -73
-32 -25 -76 -83 -85 -112 l-6 -23 135 0 136 0 0 25 c0 25 0 25 -95 25 -52 0
-95 4 -95 9 0 4 29 33 65 62 116 96 148 167 105 237 -32 53 -110 68 -177 35z"/>
<path d="M6366 2283 c-3 -4 -6 -17 -6 -30 0 -23 2 -23 106 -23 l106 0 -39 -47
c-46 -56 -89 -150 -103 -223 -14 -74 -13 -80 13 -80 21 0 25 7 36 68 16 80 47
154 102 239 61 94 58 98 -88 100 -66 1 -124 -1 -127 -4z"/>
<path d="M6740 2279 c-53 -21 -81 -91 -39 -102 15 -4 22 1 29 18 18 49 106 63
134 23 34 -49 19 -81 -75 -164 -76 -66 -108 -106 -115 -143 l-6 -31 131 0 131
0 0 25 c0 25 -1 25 -89 25 -50 0 -92 4 -95 9 -3 4 23 32 57 61 34 29 75 68 90
86 53 63 45 159 -14 189 -32 17 -102 19 -139 4z"/>
<path d="M4752 2110 c-56 -34 -67 -91 -27 -139 20 -23 23 -31 12 -38 -46 -28
-63 -125 -31 -172 49 -69 191 -65 228 8 31 58 10 152 -36 164 -16 5 -15 9 12
35 21 21 29 38 26 54 -3 13 -5 31 -5 40 -1 26 -70 68 -111 68 -19 0 -50 -9
-68 -20z m109 -40 c22 -12 27 -68 7 -88 -7 -7 -29 -12 -50 -12 -47 0 -74 33
-59 73 14 36 61 49 102 27z m-1 -165 c57 -30 47 -125 -15 -141 -56 -14 -95 11
-102 64 -5 35 -2 44 22 66 32 30 54 32 95 11z"/>
<path d="M5147 2106 c-9 -13 -36 -37 -61 -52 -31 -20 -45 -36 -46 -51 0 -20 3
-21 29 -12 15 6 38 19 50 30 l21 20 0 -161 0 -160 25 0 25 0 0 205 c0 168 -3
205 -14 205 -7 0 -21 -11 -29 -24z"/>
<path d="M6069 2084 c-18 -20 -46 -42 -61 -50 -29 -15 -39 -54 -14 -54 7 0 30
11 50 25 l36 24 0 -159 0 -160 25 0 25 0 0 205 c0 228 -1 231 -61 169z"/>
<path d="M5628 2104 c-3 -3 -4 -14 -1 -25 5 -17 15 -19 109 -19 l104 0 -43
-57 c-48 -65 -92 -158 -103 -218 -3 -22 -8 -48 -10 -57 -2 -14 4 -18 25 -18
27 0 29 3 35 57 8 68 45 155 103 243 66 100 66 100 -85 100 -71 0 -131 -3
-134 -6z"/>
</g>
</svg>
